<?xml version="1.0" standalone="no"?>
<!DOCTYPE svg PUBLIC "-//W3C//DTD SVG 20010904//EN"
 "http://www.w3.org/TR/2001/REC-SVG-20010904/DTD/svg10.dtd">
<svg version="1.0" xmlns="http://www.w3.org/2000/svg"
 width="1999.000000pt" height="1999.000000pt" viewBox="0 0 1999.000000 1999.000000"
 preserveAspectRatio="xMidYMid meet">
<metadata>
Created by potrace 1.11, written by Peter Selinger 2001-2013
</metadata>
<g transform="translate(0.000000,1999.000000) scale(0.100000,-0.100000)"
fill="#000000" stroke="none">
<path d="M9610 19984 c-273 -15 -452 -28 -620 -45 -1820 -181 -3532 -851
-5005 -1957 -628 -472 -1248 -1069 -1750 -1687 -1234 -1518 -1991 -3354 -2184
-5295 -38 -377 -46 -549 -46 -1010 1 -458 7 -608 46 -1000 101 -1046 381
-2101 815 -3073 404 -904 955 -1761 1623 -2525 295 -338 750 -781 1105 -1077
1286 -1070 2797 -1795 4421 -2120 649 -130 1160 -183 1840 -192 429 -6 701 4
1070 38 2662 244 5102 1543 6810 3624 1259 1533 2033 3420 2214 5400 61 656
53 1408 -20 2060 -216 1932 -999 3764 -2254 5271 -296 355 -739 810 -1077
1105 -1201 1051 -2587 1783 -4123 2179 -573 148 -1169 242 -1830 290 -147 11
-906 21 -1035 14z m-1392 -4666 l-3 -333 -987 -3 -988 -2 0 -645 0 -645 840 0
840 0 0 -340 0 -340 -840 0 -840 0 0 -1065 0 -1065 -440 0 -440 0 0 2385 0
2385 1430 0 1430 0 -2 -332z m3292 -3 l0 -335 -990 0 -990 0 0 -645 0 -645
840 0 840 0 0 -340 0 -340 -840 0 -840 0 0 -725 0 -725 990 0 990 0 0 -340 0
-340 -1430 0 -1430 0 0 2385 0 2385 1430 0 1430 0 0 -335z m3960 -5 l0 -340
-675 0 -675 0 0 -2045 0 -2045 -435 0 -435 0 0 2045 0 2045 -665 0 -665 0 0
340 0 340 1775 0 1775 0 0 -340z m-3098 -6101 l3 -1071 64 83 c94 122 349 373
475 467 169 126 353 209 554 249 123 25 432 25 556 0 295 -60 528 -187 751
-411 387 -388 588 -990 509 -1525 -111 -756 -635 -1354 -1307 -1492 -405 -83
-816 16 -1189 286 -109 79 -301 271 -363 364 l-50 73 -3 -341 -2 -341 -65 0
-65 0 0 2365 0 2365 65 0 65 0 2 -1071z m-6542 -1086 c0 -1405 4 -2153 11
-2182 15 -66 59 -149 108 -203 106 -118 240 -137 555 -78 59 12 109 20 111 18
6 -9 55 -121 53 -123 -2 -1 -43 -10 -93 -19 -313 -56 -509 -48 -637 27 -59 34
-135 119 -175 193 -68 127 -63 -45 -63 2343 l0 2161 65 0 65 0 0 -2137z m3935
831 c430 -73 754 -354 890 -776 71 -219 68 -159 74 -1333 6 -1021 7 -1061 25
-1097 13 -26 30 -41 53 -49 32 -10 33 -12 33 -70 0 -71 -9 -78 -78 -55 -57 19
-112 72 -141 136 -18 40 -21 66 -21 228 l0 184 -96 -101 c-216 -228 -479 -375
-820 -460 -202 -50 -254 -56 -489 -56 -243 1 -286 8 -460 78 -264 106 -485
329 -583 590 -51 138 -65 228 -59 392 8 227 58 351 209 510 199 210 469 333
858 389 229 33 559 29 834 -10 122 -18 418 -89 535 -129 l74 -25 -6 283 c-6
298 -18 391 -67 536 -118 351 -376 594 -728 688 -87 23 -117 26 -282 27 -211
1 -277 -9 -475 -75 -179 -60 -386 -166 -607 -312 l-26 -18 -40 53 -41 52 62
42 c176 117 450 257 622 317 240 83 496 104 750 61z"/>
<path d="M13640 8824 c-187 -21 -322 -60 -475 -136 -293 -144 -543 -397 -749
-755 l-47 -82 4 -658 c4 -736 1 -705 78 -853 165 -319 595 -613 1022 -701 138
-28 322 -28 470 1 533 103 997 553 1162 1125 49 171 60 255 59 470 0 177 -4
215 -27 326 -64 304 -180 551 -363 770 -197 237 -499 419 -783 473 -82 16
-288 27 -351 20z"/>
<path d="M9198 7335 c-234 -33 -383 -76 -538 -156 -173 -88 -319 -228 -381
-365 -87 -191 -74 -471 31 -672 127 -245 345 -413 625 -483 277 -69 743 -3
1073 151 119 56 269 158 352 240 77 76 177 220 212 308 23 56 23 63 23 426 l0
370 -60 23 c-154 61 -390 118 -615 148 -162 23 -594 29 -722 10z"/>
</g>
</svg>
