<?xml version="1.0" encoding="utf-8"?>
<!-- Generator: Adobe Illustrator 17.1.0, SVG Export Plug-In . SVG Version: 6.00 Build 0)  -->
<!DOCTYPE svg PUBLIC "-//W3C//DTD SVG 1.1//EN" "http://www.w3.org/Graphics/SVG/1.1/DTD/svg11.dtd">
<svg version="1.1" xmlns="http://www.w3.org/2000/svg" xmlns:xlink="http://www.w3.org/1999/xlink" x="0px" y="0px"
	 viewBox="0 0 482.8 482" enable-background="new 0 0 482.8 482" xml:space="preserve">
<g id="Layer_4" display="none">
	<rect x="0.8" y="0" display="inline" fill="#CFCECE" width="482" height="482"/>
</g>
<g id="Blank_circle">
	<circle fill="#4EC9F5" cx="241.4" cy="241" r="239.9"/>
</g>
<g id="Pattern">
	<g>
		<defs>
			<circle id="SVGID_1_" cx="241.4" cy="241" r="239.9"/>
		</defs>
		<clipPath id="SVGID_2_">
			<use xlink:href="#SVGID_1_"  overflow="visible"/>
		</clipPath>
		<g clip-path="url(#SVGID_2_)">
			<defs>
				<circle id="SVGID_3_" cx="241.4" cy="241" r="241"/>
			</defs>
			<clipPath id="SVGID_4_">
				<use xlink:href="#SVGID_3_"  overflow="visible"/>
			</clipPath>
			<path clip-path="url(#SVGID_4_)" fill="none" stroke="#FFFFFF" stroke-miterlimit="10" d="M6.8,215.1L6.3,204
				c0-0.9,0.3-1.6,1.1-2.1c0.8-0.5,1.6-0.4,2.4,0.1l9.2,6.2c0.7-1.6,0.9-3.2,0.9-4.9c-0.2-3.1-1.4-5.7-3.7-7.8
				c-2.3-2.1-5-3.1-8.1-2.9c-3.1,0.2-5.7,1.4-7.8,3.7c-2.1,2.3-3.1,5-2.9,8.1c0.1,2.7,1.1,5.1,2.9,7C1.9,213.5,4.2,214.7,6.8,215.1z
				 M11,208.3l0.3,6.6c2-0.5,3.7-1.5,5.1-2.9L11,208.3z M11.8,225.3l14.1,9.5l-0.8-17l-4.8-3.3c-2.3,2.6-5.2,4.2-8.7,4.9L11.8,225.3
				z M11.5,264.9c3.1-0.2,5.7-1.4,7.8-3.7c2.1-2.3,3.1-5,2.9-8.1c-0.1-1.4-0.4-2.8-1.1-4.2l-8.9,6.6c-0.5,0.4-1.1,0.5-1.7,0.4
				c-0.6-0.1-1.1-0.4-1.5-0.9c-0.3-0.3-0.4-0.8-0.5-1.3c0-0.8,0.3-1.5,0.9-1.9l8.9-6.6c-2.3-2.1-5-3-8.1-2.9
				c-3.1,0.2-5.7,1.4-7.8,3.7c-2.1,2.3-3.1,5-2.9,8.1c0.2,3.1,1.4,5.7,3.7,7.8C5.7,264.1,8.4,265.1,11.5,264.9z M11.7,269.5
				c-4.4,0.2-8.2-1.2-11.4-4.1c-3.2-2.9-5-6.6-5.2-11c-0.2-4.4,1.2-8.2,4.1-11.4c2.9-3.2,6.6-5,11-5.2c2.3-0.1,4.5,0.2,6.6,1.1
				c2.1,0.8,3.9,2,5.5,3.6l3.3-2.5L8.4,228.4c-0.6-0.4-1-1-1-1.8l-0.3-7c-3.9-0.4-7.2-2-9.9-4.8c-2.7-2.8-4.2-6.2-4.4-10.2
				c-0.2-4.4,1.2-8.2,4.1-11.4c2.9-3.2,6.6-5,11-5.2c4.4-0.2,8.2,1.2,11.4,4.1c3.2,2.9,5,6.6,5.2,11c0.1,2.7-0.4,5.2-1.6,7.7
				l6.7,4.5l-0.4-7.9c0-0.6,0.2-1.2,0.6-1.6c0.4-0.5,0.9-0.7,1.6-0.7c0.6,0,1.2,0.2,1.6,0.6c0.5,0.4,0.7,0.9,0.7,1.6l0.7,13.6
				l-4.5,0.2l0.7,15.4l4.4-3.2l-0.4-7.8c0-0.6,0.2-1.2,0.6-1.6c0.4-0.5,0.9-0.7,1.6-0.8c0.6,0,1.2,0.2,1.6,0.6
				c0.5,0.4,0.7,0.9,0.7,1.6l0.4,9c0,0.8-0.3,1.4-0.9,1.9l-13.7,10.1c1.1,2.1,1.8,4.3,1.9,6.7c0.2,4.4-1.2,8.2-4.1,11.4
				C19.7,267.5,16.1,269.2,11.7,269.5z"/>
			<path clip-path="url(#SVGID_4_)" fill="none" stroke="#FFFFFF" stroke-miterlimit="10" d="M410.6,311.9c0-1.5-0.5-2.7-1.6-3.8
				c-1-1-2.3-1.6-3.8-1.6c-1.5,0-2.7,0.5-3.8,1.6c-1,1-1.6,2.3-1.6,3.8c0,1.5,0.5,2.7,1.6,3.8c1,1,2.3,1.6,3.8,1.6
				c1.5,0,2.7-0.5,3.8-1.6C410.1,314.7,410.6,313.4,410.6,311.9z M421.3,309.7v4.6c0,0.2-0.1,0.3-0.2,0.5c-0.1,0.2-0.2,0.2-0.4,0.3
				l-3.8,0.6c-0.3,0.7-0.5,1.4-0.8,1.9c0.5,0.7,1.2,1.6,2.2,2.9c0.1,0.2,0.2,0.3,0.2,0.5c0,0.2-0.1,0.3-0.2,0.5
				c-0.4,0.5-1.1,1.3-2.1,2.2c-1,1-1.6,1.5-2,1.5c-0.2,0-0.3-0.1-0.5-0.2l-2.9-2.2c-0.6,0.3-1.2,0.6-1.9,0.8
				c-0.2,1.9-0.4,3.2-0.6,3.9c-0.1,0.4-0.3,0.6-0.7,0.6H403c-0.2,0-0.4-0.1-0.5-0.2c-0.1-0.1-0.2-0.3-0.2-0.4l-0.6-3.8
				c-0.7-0.2-1.3-0.5-1.9-0.8l-2.9,2.2c-0.1,0.1-0.3,0.2-0.5,0.2c-0.2,0-0.4-0.1-0.5-0.2c-1.7-1.6-2.9-2.7-3.4-3.5
				c-0.1-0.1-0.1-0.3-0.1-0.5c0-0.2,0.1-0.3,0.2-0.5c0.2-0.3,0.6-0.8,1.1-1.4c0.5-0.6,0.9-1.1,1.1-1.5c-0.4-0.7-0.7-1.4-0.9-2.1
				l-3.8-0.6c-0.2,0-0.3-0.1-0.4-0.3c-0.1-0.1-0.2-0.3-0.2-0.5v-4.6c0-0.2,0.1-0.3,0.2-0.5c0.1-0.2,0.2-0.2,0.4-0.3l3.9-0.6
				c0.2-0.6,0.5-1.3,0.8-1.9c-0.6-0.8-1.3-1.7-2.2-2.9c-0.1-0.2-0.2-0.3-0.2-0.5c0-0.1,0.1-0.3,0.2-0.5c0.4-0.5,1-1.2,2-2.2
				c1-1,1.7-1.5,2-1.5c0.2,0,0.4,0.1,0.5,0.2l2.9,2.2c0.6-0.3,1.2-0.6,1.9-0.8c0.2-1.9,0.4-3.2,0.6-3.9c0.1-0.4,0.3-0.6,0.7-0.6h4.6
				c0.2,0,0.4,0.1,0.5,0.2c0.1,0.1,0.2,0.3,0.2,0.4l0.6,3.8c0.7,0.2,1.3,0.5,1.9,0.8l2.9-2.2c0.1-0.1,0.3-0.2,0.5-0.2
				c0.2,0,0.4,0.1,0.5,0.2c1.8,1.6,2.9,2.8,3.4,3.5c0.1,0.1,0.1,0.3,0.1,0.5c0,0.2-0.1,0.3-0.2,0.5c-0.2,0.3-0.6,0.8-1.1,1.4
				c-0.5,0.6-0.9,1.1-1.1,1.5c0.4,0.7,0.6,1.4,0.9,2l3.8,0.6c0.2,0,0.3,0.1,0.4,0.3C421.2,309.3,421.3,309.5,421.3,309.7z"/>
			<path clip-path="url(#SVGID_4_)" fill="none" stroke="#FFFFFF" stroke-miterlimit="10" d="M247.5,468l-1.1,2.1
				c-0.1,0.2-0.3,0.3-0.5,0.2l-2.1-1.1c-0.2-0.1-0.3-0.3-0.2-0.5l1.1-2.1c0.1-0.2,0.3-0.3,0.5-0.2l2.1,1.1
				C247.6,467.6,247.6,467.7,247.5,468z M253.2,463.8l-1.1,2.1c-0.1,0.2-0.3,0.3-0.5,0.2l-4.9-2.6c-0.2-0.1-0.3-0.3-0.2-0.5l1.1-2.1
				c0.1-0.2,0.3-0.3,0.5-0.2l4.9,2.6C253.3,463.4,253.4,463.6,253.2,463.8z M253.3,456.7l-1.1,2.1c-0.1,0.2-0.3,0.3-0.5,0.2
				l-2.1-1.1c-0.2-0.1-0.3-0.3-0.2-0.5l1.1-2.1c0.1-0.2,0.3-0.3,0.5-0.2l2.1,1.1C253.4,456.3,253.5,456.5,253.3,456.7z M270.1,479.6
				l-1.1,2.1c-0.1,0.2-0.3,0.3-0.5,0.2l-19-9.8c-0.2-0.1-0.3-0.3-0.2-0.5l1.1-2.1c0.1-0.2,0.3-0.3,0.5-0.2l19,9.8
				C270.1,479.2,270.2,479.4,270.1,479.6z M258.9,466.7l-1.1,2.1c-0.1,0.2-0.3,0.3-0.5,0.2l-2.1-1.1c-0.2-0.1-0.3-0.3-0.2-0.5
				l1.1-2.1c0.1-0.2,0.3-0.3,0.5-0.2l2.1,1.1C259,466.3,259,466.5,258.9,466.7z M259,459.6l-1.1,2.1c-0.1,0.2-0.3,0.3-0.5,0.2
				l-2.1-1.1c-0.2-0.1-0.3-0.3-0.2-0.5l1.1-2.1c0.1-0.2,0.3-0.3,0.5-0.2l2.1,1.1C259.1,459.2,259.1,459.4,259,459.6z M264.5,469.6
				l-1.1,2.1c-0.1,0.2-0.3,0.3-0.5,0.2l-2.1-1.1c-0.2-0.1-0.3-0.3-0.2-0.5l1.1-2.1c0.1-0.2,0.3-0.3,0.5-0.2l2.1,1.1
				C264.6,469.2,264.7,469.4,264.5,469.6z M264.6,462.5l-1.1,2.1c-0.1,0.2-0.3,0.3-0.5,0.2l-2.1-1.1c-0.2-0.1-0.3-0.3-0.2-0.5
				l1.1-2.1c0.1-0.2,0.3-0.3,0.5-0.2l2.1,1.1C264.7,462.1,264.7,462.3,264.6,462.5z M270.2,472.5l-1.1,2.1c-0.1,0.2-0.3,0.3-0.5,0.2
				l-2.1-1.1c-0.2-0.1-0.3-0.3-0.2-0.5l1.1-2.1c0.1-0.2,0.3-0.3,0.5-0.2l2.1,1.1C270.2,472.1,270.3,472.3,270.2,472.5z M275.7,482.6
				l-1.1,2.1c-0.1,0.2-0.3,0.3-0.5,0.2l-2.1-1.1c-0.2-0.1-0.3-0.3-0.2-0.5l1.1-2.1c0.1-0.2,0.3-0.3,0.5-0.2l2.1,1.1
				C275.8,482.1,275.8,482.3,275.7,482.6z M270.3,465.4l-1.1,2.1c-0.1,0.2-0.3,0.3-0.5,0.2l-2.1-1.1c-0.2-0.1-0.3-0.3-0.2-0.5
				l1.1-2.1c0.1-0.2,0.3-0.3,0.5-0.2l2.1,1.1C270.3,465,270.4,465.2,270.3,465.4z M275.9,468.4l-1.1,2.1c-0.1,0.2-0.3,0.3-0.5,0.2
				l-2.1-1.1c-0.2-0.1-0.3-0.3-0.2-0.5l1.1-2.1c0.1-0.2,0.3-0.3,0.5-0.2l2.1,1.1C276,467.9,276,468.1,275.9,468.4z M281.6,471.3
				l-4,7.8c-0.1,0.2-0.3,0.3-0.5,0.2l-4.9-2.6c-0.2-0.1-0.3-0.3-0.2-0.5l1.1-2.1c0.1-0.2,0.3-0.3,0.5-0.2l2.5,1.3l2.7-5.3
				c0.1-0.2,0.3-0.3,0.5-0.2l2.1,1.1C281.6,470.9,281.7,471,281.6,471.3z M275.8,489.3l10.2-19.7l-36.7-19l-10.2,19.7L275.8,489.3z
				 M288.8,471l-10.2,19.7c-0.4,0.8-1,1.3-1.9,1.6c-0.8,0.3-1.6,0.2-2.4-0.2l-36.7-19c-0.8-0.4-1.3-1-1.6-1.9
				c-0.3-0.8-0.2-1.6,0.2-2.4l10.2-19.7c0.4-0.8,1-1.3,1.9-1.6c0.8-0.3,1.6-0.2,2.4,0.2l36.7,19c0.8,0.4,1.3,1,1.6,1.9
				C289.3,469.4,289.2,470.2,288.8,471z"/>
			<path clip-path="url(#SVGID_4_)" fill="#FFFFFF" d="M85.4,248.9c0.4,0.3,0.6,0.7,0.7,1.2c0.1,0.5,0,1-0.3,1.4
				c-0.3,0.4-0.7,0.6-1.2,0.7c-0.5,0.1-1,0-1.4-0.3c-0.4-0.3-0.6-0.7-0.7-1.2c-0.1-0.5,0-1,0.3-1.4c0.3-0.4,0.7-0.6,1.2-0.7
				C84.5,248.5,85,248.7,85.4,248.9z M91.3,255.6l4.9,18c0.2,0.6,0.1,1.2-0.4,1.7c-0.5,0.5-1,0.7-1.7,0.6l-4.1-0.7
				c-0.3,0-0.5-0.2-0.8-0.3c-0.3-0.2-0.5-0.4-0.6-0.7l-9.4-20.9l-3.7-0.4c-0.2,0-0.3-0.1-0.4-0.1c-0.3,0.9-0.8,1.7-1.4,2.4
				c-1,1.1-2.3,1.9-3.8,2.5c-1.6,0.5-3.3,0.7-5.2,0.6c-3-0.2-5.6-1.1-7.9-2.8c-2.1-1.6-3.4-3.4-3.8-5.6c-0.4-2.3,0.1-4.4,1.7-6.2
				c1-1.1,2.3-1.9,3.8-2.5c1.6-0.5,3.3-0.8,5.2-0.6c3,0.2,5.7,1.2,7.9,2.8c1.3,1,2.3,2.1,3,3.3c0.3-0.1,0.6-0.1,0.9-0.1l4.1,0.4
				l-1.6-3.8c-0.1-0.3-0.1-0.6-0.1-0.9c-1.4-0.3-2.8-0.9-4-1.9c-2.3-1.7-3.9-3.9-5-6.7c-0.7-1.8-1-3.5-0.9-5.1
				c0.1-1.7,0.5-3.1,1.2-4.4c0.6-1,1.4-1.8,2.3-2.4c0.9-0.6,2-1,3.1-1.1c2.2-0.3,4.4,0.4,6.5,2c2.3,1.7,3.9,3.9,5,6.7
				c0.7,1.8,1,3.5,1,5.1c-0.1,1.7-0.5,3.1-1.2,4.4c-0.5,0.8-1.1,1.5-1.9,2.1c0,0.1,0.1,0.2,0.2,0.3l1.4,3.4l22.7,2.9
				c0.3,0,0.6,0.2,0.9,0.3c0.2,0.2,0.4,0.4,0.6,0.7l1.9,3.7c0.3,0.6,0.3,1.2-0.1,1.8c-0.4,0.6-0.9,0.9-1.5,0.9L91.3,255.6z
				 M79.9,237.8c1.2-0.1,2-0.8,2.4-2.2c0.4-1.3,0.2-2.8-0.5-4.5c-0.8-2-1.9-3.5-3.5-4.7c-1.1-0.9-2.2-1.2-3.3-1.1
				c-1.2,0.1-2,0.8-2.3,2.2c-0.4,1.3-0.2,2.8,0.5,4.5c0.8,2,1.9,3.5,3.5,4.7C77.8,237.6,78.9,237.9,79.9,237.8z M65.1,253.7
				c1.8,0.1,3.3-0.2,4.5-0.9c1.1-0.7,1.6-1.7,1.4-2.9c-0.2-1-0.9-1.9-2-2.8c-1.6-1.1-3.4-1.8-5.5-1.9c-1.8-0.1-3.3,0.2-4.5,0.9
				c-1.1,0.7-1.6,1.7-1.4,2.9c0.2,1,0.9,1.9,2,2.8C61.1,252.9,63,253.6,65.1,253.7z M79.8,242.5l1.2,3l0.2-0.3
				c0.4-0.6,1-0.8,1.7-0.7l0.5,0.1l-1-2.5l-1.1,0.2c-0.1,0-0.2,0-0.4,0.1c-0.2,0-0.4,0.1-0.5,0.1c-0.1,0-0.1,0-0.2,0
				c0,0-0.1,0-0.1,0L79.8,242.5z M81.1,251.6l1.7,2.4l27.1-0.7l-1.9-3.7l-25.3-3.2l-1.9,2.6l-5.4-0.5l0.1,0.3c0,0.1,0,0.1,0.1,0.3
				c0,0.1,0,0.3,0,0.5c0,0.2,0,0.4,0.1,0.5l0.2,1.1L81.1,251.6z M90.4,273.4l4.1,0.7l-5.1-18.5l-6.5,0.2c-0.1,0-0.2,0-0.4-0.1
				L90.4,273.4z"/>
			<path clip-path="url(#SVGID_4_)" fill="#FFFFFF" d="M472.9,305.3c-0.2-0.6-0.5-1.1-1.1-1.4c-0.6-0.3-1.2-0.4-1.8-0.2
				c-0.6,0.2-1.1,0.5-1.4,1.1c-0.3,0.6-0.4,1.2-0.2,1.8c0.2,0.6,0.5,1.1,1.1,1.4c0.6,0.3,1.2,0.4,1.8,0.2c0.6-0.2,1.1-0.5,1.4-1.1
				C473,306.5,473.1,306,472.9,305.3z M485.1,295.9l-9.3-34.2c-0.1-0.3-0.3-0.5-0.6-0.7c-0.3-0.2-0.6-0.2-0.9-0.1l-29.6,8.1
				c-0.3,0.1-0.5,0.3-0.7,0.6c-0.2,0.3-0.2,0.6-0.1,0.9l9.3,34.2c0.1,0.3,0.3,0.5,0.6,0.7c0.3,0.2,0.6,0.2,0.9,0.1l29.6-8.1
				c0.3-0.1,0.5-0.3,0.7-0.6C485.1,296.5,485.2,296.2,485.1,295.9z M480.3,260.5l10.6,38.8c0.4,1.6,0.2,3.1-0.6,4.5
				c-0.8,1.4-2,2.3-3.6,2.8l-29.6,8.1c-1.6,0.4-3.1,0.2-4.5-0.6c-1.4-0.8-2.3-2-2.8-3.6l-10.6-38.8c-0.4-1.6-0.2-3.1,0.6-4.5
				c0.8-1.4,2-2.3,3.6-2.8l29.6-8.1c1.6-0.4,3.1-0.2,4.5,0.6C479,257.7,479.9,258.9,480.3,260.5z"/>
			<path clip-path="url(#SVGID_4_)" fill="none" stroke="#FFFFFF" stroke-miterlimit="10" d="M300.2,47.3l0.4,2.3
				c0.5,2.7,0,5.2-1.5,7.5c-1.5,2.3-3.5,3.8-6.1,4.6l0.4,2.4l4.7-0.8c0.3-0.1,0.6,0,0.9,0.2c0.3,0.2,0.4,0.4,0.5,0.8
				c0.1,0.3,0,0.6-0.2,0.9c-0.2,0.3-0.4,0.4-0.8,0.5l-11.7,2c-0.3,0.1-0.6,0-0.9-0.2c-0.3-0.2-0.4-0.4-0.5-0.8
				c-0.1-0.3,0-0.6,0.2-0.9c0.2-0.3,0.4-0.4,0.8-0.5l4.7-0.8l-0.4-2.4c-2.7,0.2-5.1-0.6-7.3-2.3c-2.2-1.7-3.5-3.9-3.9-6.6l-0.4-2.3
				c-0.1-0.3,0-0.6,0.2-0.9c0.2-0.3,0.4-0.4,0.8-0.5c0.3-0.1,0.6,0,0.9,0.2c0.3,0.2,0.4,0.4,0.5,0.8l0.4,2.3
				c0.4,2.3,1.5,4.1,3.4,5.4c1.9,1.3,4,1.8,6.2,1.4c2.3-0.4,4.1-1.5,5.4-3.4c1.3-1.9,1.8-4,1.4-6.2l-0.4-2.3c-0.1-0.3,0-0.6,0.2-0.9
				c0.2-0.3,0.4-0.4,0.8-0.5c0.3-0.1,0.6,0,0.9,0.2C300,46.8,300.1,47,300.2,47.3z M294.3,41.1l1.6,9.4c0.3,1.6-0.1,3.1-1,4.4
				c-1,1.3-2.2,2.2-3.8,2.4c-1.6,0.3-3.1-0.1-4.4-1c-1.3-0.9-2.2-2.2-2.4-3.8l-1.6-9.4c-0.3-1.6,0.1-3.1,1-4.4
				c0.9-1.3,2.2-2.2,3.8-2.4c1.6-0.3,3.1,0.1,4.4,1C293.2,38.2,294,39.5,294.3,41.1z"/>
			<path clip-path="url(#SVGID_4_)" fill="none" stroke="#FFFFFF" stroke-width="1.5179" stroke-miterlimit="10" d="M168.7,53.9
				c-0.1-0.8-0.5-1.4-1.1-1.8c-0.6-0.5-1.3-0.6-2.1-0.5c-0.8,0.1-1.4,0.5-1.8,1.1c-0.5,0.6-0.6,1.3-0.5,2.1c0.1,0.8,0.5,1.4,1.1,1.8
				c0.6,0.5,1.3,0.6,2.1,0.5c0.8-0.1,1.4-0.5,1.8-1.1C168.7,55.4,168.8,54.7,168.7,53.9z M177,52.8c-0.1-0.8-0.5-1.4-1.1-1.8
				c-0.6-0.5-1.3-0.6-2.1-0.5c-0.8,0.1-1.4,0.5-1.8,1.1c-0.5,0.6-0.6,1.3-0.5,2.1c0.1,0.8,0.5,1.4,1.1,1.8c0.6,0.5,1.3,0.6,2.1,0.5
				c0.8-0.1,1.4-0.5,1.8-1.1C176.9,54.3,177.1,53.6,177,52.8z M167.6,45.7c-0.1-0.8-0.5-1.4-1.1-1.8c-0.6-0.5-1.3-0.6-2.1-0.5
				c-0.8,0.1-1.4,0.5-1.8,1.1c-0.5,0.6-0.6,1.3-0.5,2.1c0.1,0.8,0.5,1.4,1.1,1.8c0.6,0.5,1.3,0.6,2.1,0.5c0.8-0.1,1.4-0.5,1.8-1.1
				C167.5,47.1,167.7,46.4,167.6,45.7z M185.3,51.7c-0.1-0.8-0.5-1.4-1.1-1.8c-0.6-0.5-1.3-0.6-2.1-0.5c-0.8,0.1-1.4,0.5-1.8,1.1
				c-0.5,0.6-0.6,1.3-0.5,2.1c0.1,0.8,0.5,1.4,1.1,1.8c0.6,0.5,1.3,0.6,2.1,0.5c0.8-0.1,1.4-0.5,1.8-1.1
				C185.2,53.1,185.4,52.4,185.3,51.7z M175.9,44.5c-0.1-0.8-0.5-1.4-1.1-1.8c-0.6-0.5-1.3-0.6-2.1-0.5c-0.8,0.1-1.4,0.5-1.8,1.1
				c-0.5,0.6-0.6,1.3-0.5,2.1c0.1,0.8,0.5,1.4,1.1,1.8c0.6,0.5,1.3,0.6,2.1,0.5c0.8-0.1,1.4-0.5,1.8-1.1
				C175.8,46,176,45.3,175.9,44.5z M166.5,37.4c-0.1-0.8-0.5-1.4-1.1-1.8c-0.6-0.5-1.3-0.6-2.1-0.5c-0.8,0.1-1.4,0.5-1.8,1.1
				c-0.5,0.6-0.6,1.3-0.5,2.1c0.1,0.8,0.5,1.4,1.1,1.8c0.6,0.5,1.3,0.6,2.1,0.5c0.8-0.1,1.4-0.5,1.8-1.1
				C166.4,38.8,166.6,38.2,166.5,37.4z M184.1,43.4c-0.1-0.8-0.5-1.4-1.1-1.8c-0.6-0.5-1.3-0.6-2.1-0.5c-0.8,0.1-1.4,0.5-1.8,1.1
				c-0.5,0.6-0.6,1.3-0.5,2.1c0.1,0.8,0.5,1.4,1.1,1.8c0.6,0.5,1.3,0.6,2.1,0.5c0.8-0.1,1.4-0.5,1.8-1.1
				C184.1,44.8,184.2,44.2,184.1,43.4z M174.7,36.3c-0.1-0.8-0.5-1.4-1.1-1.8c-0.6-0.5-1.3-0.6-2.1-0.5c-0.8,0.1-1.4,0.5-1.8,1.1
				c-0.5,0.6-0.6,1.3-0.5,2.1c0.1,0.8,0.5,1.4,1.1,1.8c0.6,0.5,1.3,0.6,2.1,0.5c0.8-0.1,1.4-0.5,1.8-1.1
				C174.7,37.7,174.8,37,174.7,36.3z M193.5,50.5l-1.1-8.3c-0.1-0.7-0.5-1.4-1.1-1.8c-0.6-0.5-1.3-0.7-2-0.6
				c-0.7,0.1-1.4,0.5-1.8,1.1c-0.5,0.6-0.7,1.3-0.6,2.1l1.1,8.3c0.1,0.7,0.5,1.4,1.1,1.8c0.6,0.5,1.3,0.7,2,0.6
				c0.7-0.1,1.4-0.5,1.8-1.1C193.5,52,193.6,51.3,193.5,50.5z M183,35.1c-0.1-0.8-0.5-1.4-1.1-1.8c-0.6-0.5-1.3-0.6-2.1-0.5
				c-0.8,0.1-1.4,0.5-1.8,1.1c-0.5,0.6-0.6,1.3-0.5,2.1c0.1,0.8,0.5,1.4,1.1,1.8c0.6,0.5,1.3,0.6,2.1,0.5c0.8-0.1,1.4-0.5,1.8-1.1
				C182.9,36.6,183.1,35.9,183,35.1z M190.3,27.1l-0.8-5.5c-0.1-0.4-0.2-0.7-0.5-0.9c-0.3-0.2-0.7-0.3-1-0.3l-27.6,3.8
				c-0.4,0.1-0.7,0.2-0.9,0.5c-0.2,0.3-0.3,0.7-0.3,1l0.8,5.5c0.1,0.4,0.2,0.7,0.5,0.9c0.3,0.2,0.7,0.3,1,0.3l27.6-3.8
				c0.4-0.1,0.7-0.2,0.9-0.5C190.3,27.8,190.4,27.5,190.3,27.1z M191.3,34c-0.1-0.8-0.5-1.4-1.1-1.8c-0.6-0.5-1.3-0.6-2.1-0.5
				c-0.8,0.1-1.4,0.5-1.8,1.1c-0.5,0.6-0.6,1.3-0.5,2.1s0.5,1.4,1.1,1.8c0.6,0.5,1.3,0.6,2.1,0.5c0.8-0.1,1.4-0.5,1.8-1.1
				C191.2,35.4,191.4,34.8,191.3,34z M192.1,19.8l4.5,33.1c0.1,0.7-0.1,1.4-0.6,2.1c-0.5,0.6-1.1,1-1.8,1.1L164,60.2
				c-0.7,0.1-1.4-0.1-2.1-0.6c-0.6-0.5-1-1.1-1.1-1.8l-4.5-33.1c-0.1-0.7,0.1-1.4,0.6-2.1c0.5-0.6,1.1-1,1.8-1.1l30.3-4.2
				c0.7-0.1,1.4,0.1,2.1,0.6C191.7,18.5,192,19.1,192.1,19.8z"/>
			<path clip-path="url(#SVGID_4_)" fill="none" stroke="#FFFFFF" stroke-miterlimit="10" d="M129.2,271.5"/>
			
				<rect x="47.5" y="86.6" transform="matrix(0.6907 0.7231 -0.7231 0.6907 103.4016 1.5539)" clip-path="url(#SVGID_4_)" fill="#FFFFFF" stroke="#4EC9F5" stroke-miterlimit="10" width="4.8" height="70.2"/>
			<polygon clip-path="url(#SVGID_4_)" fill="#4EC9F5" stroke="#FFFFFF" stroke-miterlimit="10" points="92.9,131.4 62.8,100 
				64.5,98.4 66.7,100.7 71.2,96.2 69.7,94.7 71.2,93.2 77.6,99.9 93.4,129.6 			"/>
			<line clip-path="url(#SVGID_4_)" fill="none" stroke="#FFFFFF" stroke-miterlimit="10" x1="69.7" y1="94.7" x2="76" y2="101.3"/>
			
				<line clip-path="url(#SVGID_4_)" fill="none" stroke="#FFFFFF" stroke-miterlimit="10" x1="66.7" y1="100.7" x2="71.4" y2="105.6"/>
			
				<line clip-path="url(#SVGID_4_)" fill="none" stroke="#FFFFFF" stroke-miterlimit="10" x1="57.1" y1="106.6" x2="61.7" y2="118"/>
			<circle clip-path="url(#SVGID_4_)" fill="none" stroke="#FFFFFF" stroke-miterlimit="10" cx="71.3" cy="100.8" r="1.5"/>
			<path clip-path="url(#SVGID_4_)" fill="#FFFFFF" d="M72.9,100.4c-1,0-2,0-3,0.3c-0.1,0.5,0.1,0.9,0.4,1.3c0.6,0.6,1.6,0.6,2.2,0
				C72.9,101.5,73.1,100.9,72.9,100.4z"/>
			<polygon clip-path="url(#SVGID_4_)" fill="#4EC9F5" stroke="#FFFFFF" stroke-miterlimit="10" points="59.4,120.1 50,110.2 
				50.8,109.4 52.3,110.9 52.6,110.6 53.2,111.1 55.8,108.6 56.6,109.3 59.2,106.6 58.2,105.6 58.8,105.1 58.4,104.7 59.4,103.7 
				66.8,111.4 59.7,118.1 60.8,119.2 			"/>
			<polygon clip-path="url(#SVGID_4_)" fill="#4EC9F5" stroke="#FFFFFF" stroke-miterlimit="10" points="65.8,116.8 64.9,117.3 
				62.9,115.1 66.8,111.4 89.2,134.9 88.8,135.3 			"/>
			<polygon clip-path="url(#SVGID_4_)" fill="#4EC9F5" points="66.1,115.3 65.8,115.5 64.9,114.6 66.5,113.1 79.4,126.2 79.3,126.3 
							"/>
			
				<ellipse transform="matrix(0.6933 0.7207 -0.7207 0.6933 94.4451 -8.4793)" clip-path="url(#SVGID_4_)" fill="#FFFFFF" cx="57.2" cy="106.7" rx="0.2" ry="0.7"/>
			<g clip-path="url(#SVGID_4_)">
				<path fill="#FFFFFF" d="M61.4,118.3c0,0-0.1-0.2-0.1-0.3c0-0.2,0-0.3,0.1-0.4c0.1-0.1,0.3-0.1,0.4-0.1c0.2,0,0.3,0.1,0.3,0.1
					s0.1,0.2,0.1,0.3c0,0.2,0,0.3-0.1,0.4c-0.1,0.1-0.3,0.1-0.4,0.1C61.5,118.4,61.4,118.3,61.4,118.3z"/>
			</g>
			
				<line clip-path="url(#SVGID_4_)" fill="none" stroke="#FFFFFF" stroke-miterlimit="10" x1="75.8" y1="101.1" x2="71.2" y2="105.5"/>
			<path clip-path="url(#SVGID_4_)" fill="#FFFFFF" d="M334.3,54.4c-0.1,0.2-1,1.1-1.1,1.1l-0.6-0.1c-0.2,0-0.7-1.2-0.6-1.4l0.2-1.3
				c0.1-0.2,0.2-0.4,0.4-0.3l1.8,0.4c0.2,0,0.3,0.3,0.2,0.5L334.3,54.4z"/>
			<path clip-path="url(#SVGID_4_)" fill="#4EC9F5" stroke="#FFFFFF" stroke-miterlimit="10" d="M343.9,45.7
				c-0.4,1.7-7.1,8.1-8.4,7.8l-4.4-1c-1.3-0.3-4.9-8.6-4.5-10.3l1.6-9.8c0.4-1.7,1.7-2.8,3-2.5l13.2,3c1.3,0.3,2,1.9,1.7,3.5
				L343.9,45.7z"/>
			<path clip-path="url(#SVGID_4_)" fill="#FFFFFF" stroke="#4EC9F5" stroke-miterlimit="10" d="M351,41c-0.4,1.7-1.7,2.8-3,2.5
				L323.5,38c-1.3-0.3-2-1.9-1.7-3.5l3.8-16.8c0.4-1.7,1.7-2.8,3-2.5l24.5,5.5c1.3,0.3,2,1.9,1.7,3.5L351,41z"/>
			<path clip-path="url(#SVGID_4_)" fill="#4EC9F5" d="M352.5,35.4c-0.2,0.9-0.9,1.4-1.6,1.3l-27.2-6.1c-0.7-0.2-1.1-1-0.9-1.8l0,0
				c0.2-0.9,0.9-1.4,1.6-1.3l27.2,6.1C352.3,33.7,352.7,34.6,352.5,35.4L352.5,35.4z"/>
			<path clip-path="url(#SVGID_4_)" fill="#FFFFFF" d="M355.7,33.2c3.6,4.8-2.4,2.8-3.9,2.5l-29-6.5c-1.5-0.3-6.1-1.5-2.1-3.6
				c4-2.2,3.8-16.8,3.8-16.8c0.4-1.7,1.9-2.7,3.4-2.4l29,6.5c1.5,0.3,2.5,2,2.1,3.6C359,16.5,353.6,30.5,355.7,33.2z"/>
			<path clip-path="url(#SVGID_4_)" fill="none" stroke="#FFFFFF" stroke-miterlimit="10" d="M332.4,53.2c-0.3-0.4-1.2-3.7-3.4-9.2
				c-0.8-1.9-0.2-4.5,0-5.1"/>
			<path clip-path="url(#SVGID_4_)" fill="none" stroke="#FFFFFF" stroke-miterlimit="10" d="M334.1,53.5c0.5-0.2,2.7-2.8,7-6.9
				c1.5-1.4,2.1-4,2.2-4.7"/>
			
				<line clip-path="url(#SVGID_4_)" fill="none" stroke="#FFFFFF" stroke-miterlimit="10" x1="333.3" y1="53.3" x2="336.2" y2="40"/>
			<circle clip-path="url(#SVGID_4_)" fill="#4EC9F5" stroke="#FFFFFF" stroke-miterlimit="10" cx="496.3" cy="302.4" r="3.1"/>
			<circle clip-path="url(#SVGID_4_)" fill="#FFFFFF" cx="496.3" cy="302.4" r="1.7"/>
			<circle clip-path="url(#SVGID_4_)" fill="#4EC9F5" cx="445.1" cy="317.5" r="0.6"/>
			<path clip-path="url(#SVGID_4_)" fill="#FFFFFF" stroke="#4EC9F5" stroke-miterlimit="10" d="M358,405.8c0-3.5,3-5.5,5.6-4.4
				c12.5,4.8,14.7,16.5,15.1,18.8c-5.6,4.3-9,2.9-10,2.3c-3.2-2.2,0.3-9.4-5.4-14.6c-1.1-1-2.6,0.6-3.8,1.3c-0.6-0.9-0.7-2.1-1.2-3"
				/>
			<circle clip-path="url(#SVGID_4_)" fill="#FFFFFF" stroke="#4EC9F5" stroke-miterlimit="10" cx="350.2" cy="411.1" r="11.1"/>
			
				<rect x="323.3" y="435.2" transform="matrix(-0.9382 0.3461 -0.3461 -0.9382 784.2499 753.0985)" clip-path="url(#SVGID_4_)" fill="#FFFFFF" stroke="#4EC9F5" stroke-miterlimit="10" width="3.1" height="22.9"/>
			
				<rect x="335.6" y="445.3" transform="matrix(-0.2613 -0.9652 0.9652 -0.2613 -14.4454 899.9398)" clip-path="url(#SVGID_4_)" fill="#FFFFFF" stroke="#4EC9F5" stroke-miterlimit="10" width="3.1" height="20.4"/>
			<path clip-path="url(#SVGID_4_)" fill="#FFFFFF" stroke="#4EC9F5" stroke-miterlimit="10" d="M352.8,453.4
				c-3.6-15.4-1.6-28.9,4.6-30.5c6.3-1.6,14.4,9.5,18.4,24.7L352.8,453.4z"/>
			<path clip-path="url(#SVGID_4_)" fill="#FFFFFF" stroke="#4EC9F5" stroke-miterlimit="10" d="M351.4,434.4
				c-0.7,0.5-6.3,8.6-7.1,9.1c-0.6,0.4-9.8,6.1-9.4,8.7c0.3,1.5,1.2,2,2.2,2.2c3.6,0.8,7.4-1.3,10.2-3.4c1.9-1.4,7.9-10.3,8.2-10.9"
				/>
			<path clip-path="url(#SVGID_4_)" fill="none" stroke="#FFFFFF" stroke-miterlimit="10" d="M391.7,272.2"/>
			<path clip-path="url(#SVGID_4_)" fill="#4EC9F5" stroke="#FFFFFF" stroke-miterlimit="10" d="M418.2,241.6
				c0.1-1.6-0.9-2.8-2.3-3.5c-1.9-1-7-3.9-9-4.5c-0.9-0.3-2.7-6.9-5.3-10.7c-2.7-4-3.2-2.7-3.7-2.2c-0.4,0.5,1.4,12.7,3.2,15.7
				c0.9,1.5,10.4,11,13.5,8.8C412.9,246.3,418,243.1,418.2,241.6z"/>
			<path clip-path="url(#SVGID_4_)" fill="#4EC9F5" stroke="#FFFFFF" stroke-miterlimit="10" d="M391.2,254.6
				c4.3,16.1,10,28.5,12.9,27.7c2.8-0.7,1.7-14.3-2.4-30.5L391.2,254.6z"/>
			<circle clip-path="url(#SVGID_4_)" fill="#FFFFFF" stroke="#4EC9F5" stroke-miterlimit="10" cx="404" cy="206.8" r="9"/>
			<path clip-path="url(#SVGID_4_)" fill="#FFFFFF" stroke="#4EC9F5" stroke-miterlimit="10" d="M401.4,258.3
				c4.5-21.3,4.3-39.2-0.5-40.2c-4.8-1-12.4,15.1-17.2,36.4L401.4,258.3z"/>
			<path clip-path="url(#SVGID_4_)" fill="#FFFFFF" stroke="#4EC9F5" stroke-miterlimit="10" d="M383.8,253.4
				c-0.6,1.1-0.7,2.3-1,3.4c-1.4-0.3-1.9-1.7-2.8-2.6c-1-1.1-2.2-1.6-3.7-2c-1.2-0.3-3.4-0.8-4.3,0.1c-1.2,1.2-0.1,3.3,0.4,4.5
				c1.8,4.3,4.4,10.5,9.5,11.4c2.1,0.4,4.4,1.2,6.2-0.1c2.1-1.5,6.7-9,4.7-11.2c-0.9-1.1-4.2-1.7-5.5-2.2
				C386.2,254.3,385,253.7,383.8,253.4z"/>
			<path clip-path="url(#SVGID_4_)" fill="#FFFFFF" stroke="#4EC9F5" stroke-miterlimit="10" d="M386.3,244.6
				c1.5-0.5,2.2-1.9,2.4-3.4c0.3-2.2,1-8,0.8-10c-0.1-1,5.4-5.1,7.9-8.9c2.7-4,1.3-4,0.7-4.2c-0.6-0.2-11.2,6-13.3,8.9
				c-1,1.4-6.3,13.8-3.2,15.8C379.9,241.5,384.9,245,386.3,244.6z"/>
			<path clip-path="url(#SVGID_4_)" fill="#FFFFFF" stroke="#4EC9F5" stroke-width="3" stroke-miterlimit="10" d="M389.8,233.8
				c3.8,2.4,9.6,4.4,14.7,2.6"/>
			<g clip-path="url(#SVGID_4_)">
				<path fill="#FFFFFF" d="M408.2,243.2c0,0,0,0-0.1,0c-0.1,0-0.2-0.2-0.3-0.3c-0.2-0.3-0.2-0.8-0.2-1.3c0-1,0.4-2.2,1.1-3.2
					c0.7-1,1.7-1.8,2.7-2.2c0.3-0.1,0.5-0.1,0.8-0.2c0.2,0,0.6,0,0.8,0.2c0.1,0.1,0.2,0.2,0.2,0.2c0,0.1,0,0.1,0,0.2
					c0,0.1,0,0.1,0,0.1s0,0-0.1-0.1c-0.1,0-0.2,0-0.2,0.1c0,0.1,0,0.2-0.1,0.3c-0.1,0.1-0.1,0.3-0.2,0.5c-0.3,0.7-0.8,1.7-1.4,2.5
					c-0.6,0.9-1.3,1.6-2,2.2c-0.3,0.3-0.6,0.5-0.8,0.7c-0.1,0.1-0.2,0.1-0.2,0.2C408.2,243.1,408.2,243.2,408.2,243.2z"/>
			</g>
			<path clip-path="url(#SVGID_4_)" fill="#4EC9F5" stroke="#FFFFFF" stroke-miterlimit="10" d="M109.5,347.9
				c0.1,3.9-4.7,22.2-6.1,22.3l-4.8,0.2c-1.4,0.1-7.7-16.8-7.9-20.8l-1.4-23c-0.1-3.9,0.9-7.2,2.3-7.2l14.4-0.5
				c1.4-0.1,2.7,3.1,2.8,7L109.5,347.9z"/>
			<g clip-path="url(#SVGID_4_)">
				<path fill="#FFFFFF" d="M100.6,370.5c0,0,0.1,0.4,0.1,1c0.1,0.7,0.2,1.6,0.3,2.7c0.2,2.3,0.4,5.3,0.5,8.3c0.1,3,0.1,6,0.1,8.3
					c0,1.1-0.1,2.1-0.1,2.7c0,0.7-0.1,1-0.1,1s-0.1-0.4-0.1-1c-0.1-0.7-0.2-1.6-0.3-2.7c-0.2-2.3-0.4-5.3-0.5-8.3
					c-0.1-3-0.1-6-0.1-8.3c0-1.1,0.1-2.1,0.1-2.7C100.6,370.9,100.6,370.5,100.6,370.5z"/>
			</g>
			<g clip-path="url(#SVGID_4_)">
				<path fill="#FFFFFF" d="M98.4,373.2c0,0-0.3,0.7-0.9,1.7c-0.6,1-1.4,2.3-2.2,3.6c-0.9,1.3-1.8,2.5-2.6,3.4
					c-0.8,0.9-1.3,1.4-1.3,1.4s0.3-0.7,0.9-1.7c0.6-1,1.4-2.3,2.2-3.6c0.9-1.3,1.8-2.5,2.6-3.4C97.8,373.7,98.4,373.2,98.4,373.2z"
					/>
			</g>
			<g clip-path="url(#SVGID_4_)">
				<path fill="#FFFFFF" d="M105,372.9c0,0,0.5,0.4,1.1,1.1c0.6,0.7,1.4,1.6,2.2,2.6c0.7,1,1.4,2,1.8,2.8c0.4,0.8,0.7,1.4,0.7,1.4
					s-0.5-0.4-1.1-1.1c-0.6-0.7-1.4-1.6-2.2-2.6c-0.7-1-1.4-2-1.8-2.8C105.2,373.5,105,372.9,105,372.9z"/>
			</g>
			<path clip-path="url(#SVGID_4_)" fill="#4EC9F5" stroke="#FFFFFF" stroke-miterlimit="10" d="M98.1,402.8
				c0.5-2.1,3.1-2.3,5.1-3.2l-18.8,0.7l-7.3,4.7l21.1-0.8C98,403.8,98,403.3,98.1,402.8z"/>
			<path clip-path="url(#SVGID_4_)" fill="#4EC9F5" stroke="#FFFFFF" stroke-miterlimit="10" d="M103.6,401.4c-0.5,0.2-4,1.3-3.8,2
				c0.2,0.6,2.1,0.5,2.9,0.7l23.9-0.9l-6.4-4.2l-13.9,0.5C105.7,400.4,104.6,400.9,103.6,401.4z"/>
			
				<line clip-path="url(#SVGID_4_)" fill="none" stroke="#FFFFFF" stroke-miterlimit="10" x1="100.6" y1="370.5" x2="98.7" y2="319.1"/>
			<polyline clip-path="url(#SVGID_4_)" fill="none" stroke="#FFFFFF" stroke-miterlimit="10" points="91.5,319.4 93.1,350.2 
				98.5,370.4 			"/>
			<polyline clip-path="url(#SVGID_4_)" fill="none" stroke="#FFFFFF" stroke-miterlimit="10" points="105.8,318.9 106.5,349.6 
				102.7,370.2 			"/>
			<path clip-path="url(#SVGID_4_)" fill="#FFFFFF" d="M108,64c0.8,0.4,5.5,2.8,5.3,3.4c-0.1,0.4-1.5,2.6-1.2,2.9c1,1.2,0.8,1,1,1.2
				c5.1,4.4,11.2,5.9,17.3,8.6c23.8,10.5,26.6,11.4,38.4,14.8c1.1,0.3,0.5,0.3,1.2-0.8l-62-37.1c-0.3,0.6-1,1.1-1.8,0.6L99,53.1
				l-3.4,5.7c2.9,3.1,6.1,7.2,10.3,7.6C107.4,66.6,107.1,64.8,108,64z"/>
			<path clip-path="url(#SVGID_4_)" fill="#FFFFFF" d="M107.6,55.3c0.9,0.5,0.7,1.5,0.1,2l62,37.2c0.7-1.2,1-0.7,0.2-1.5
				c-8.6-8.8-10.7-10.8-31.2-26.9c-5.2-4.1-9.4-8.8-15.7-11.2c-0.2-0.1,0,0-1.5-0.3c-0.4-0.1-1.7,2.2-2,2.4
				c-0.5,0.4-4.8-2.6-5.5-3.1c0.3-1.2,2-1.8,1.1-3c-2.3-3.5-7.5-4.4-11.6-5.5l-3.3,5.5L107.6,55.3z"/>
			
				<ellipse transform="matrix(-0.514 0.8578 -0.8578 -0.514 249.1179 -4.995)" clip-path="url(#SVGID_4_)" fill="#4EC9F5" cx="126" cy="68.1" rx="3.3" ry="5.2"/>
			
				<line clip-path="url(#SVGID_4_)" fill="none" stroke="#4EC9F5" stroke-miterlimit="10" x1="127.1" y1="68.5" x2="169.9" y2="94.1"/>
			
				<circle clip-path="url(#SVGID_4_)" fill="#FFFFFF" stroke="#4EC9F5" stroke-width="0.5" stroke-miterlimit="10" cx="114.4" cy="61.1" r="3.6"/>
			<g clip-path="url(#SVGID_4_)">
				<path fill="#4EC9F5" d="M119.5,57.1c0,0,0.1,0.2,0.4,0.6c0.1,0.2,0.3,0.4,0.4,0.7c0.1,0.3,0.3,0.6,0.4,0.9
					c0.1,0.4,0.2,0.8,0.3,1.2c0.1,0.4,0.1,0.9,0.1,1.4c0,0.5-0.2,1-0.3,1.5c-0.2,0.5-0.3,1-0.6,1.4c-0.2,0.5-0.6,0.8-0.9,1.2
					c-0.2,0.2-0.4,0.3-0.5,0.5c-0.2,0.2-0.4,0.3-0.6,0.4c-0.4,0.3-0.8,0.5-1.2,0.6c-0.4,0.1-0.8,0.3-1.2,0.3c-0.2,0-0.4,0-0.5,0.1
					c-0.2,0-0.3,0-0.5,0c-0.3,0-0.6,0-0.8-0.1c-0.4-0.1-0.7-0.2-0.7-0.2s0.2,0,0.7,0.1c0.2,0,0.5,0,0.8,0c0.1,0,0.3,0,0.5,0
					c0.2,0,0.3-0.1,0.5-0.1c0.4,0,0.7-0.2,1.1-0.4c0.2-0.1,0.4-0.2,0.6-0.3c0.2-0.1,0.4-0.2,0.6-0.4c0.2-0.1,0.4-0.3,0.5-0.4
					c0.2-0.2,0.3-0.3,0.5-0.5c0.3-0.4,0.6-0.7,0.8-1.2c0.3-0.4,0.4-0.9,0.6-1.3c0.1-0.5,0.3-0.9,0.3-1.4c0.1-0.4,0-0.9,0-1.3
					c0-0.4-0.1-0.8-0.2-1.2c-0.1-0.4-0.2-0.7-0.3-0.9c-0.1-0.3-0.2-0.5-0.3-0.7C119.6,57.3,119.5,57.1,119.5,57.1z"/>
			</g>
			<path clip-path="url(#SVGID_4_)" fill="#4EC9F5" stroke="#FFFFFF" stroke-miterlimit="10" d="M104.3,45.7
				c-2.4-2.1-31.9-38.1-45.2-27.3c-1.6,1.3-0.2,4.5,1.9,5.1c20.8,4.7,25.1,12.3,39.5,27.9C101.8,50.4,103.6,47.1,104.3,45.7"/>
			<path clip-path="url(#SVGID_4_)" fill="#4EC9F5" stroke="#FFFFFF" stroke-miterlimit="10" d="M96.2,59.1
				C93.3,58,47.6,49,50.8,32.2c0.4-2,3.9-2.3,5.4-0.7c13.9,16.1,22.7,16.3,43.3,21.6C99.2,54.7,97.2,57.8,96.2,59.1"/>
			<path clip-path="url(#SVGID_4_)" fill="#FFFFFF" d="M447.3,224.8c-3.8,4.4-7.9,7.1-9.7,2.9c-1.8-4.2,0.3-13.3,4.5-11.1
				C445.5,218.4,450.4,221.2,447.3,224.8z"/>
			
				<rect x="442.6" y="227.3" transform="matrix(0.8733 -0.4873 0.4873 0.8733 -56.0374 245.3812)" clip-path="url(#SVGID_4_)" fill="#FFFFFF" width="2.1" height="6.2"/>
			<path clip-path="url(#SVGID_4_)" fill="none" stroke="#FFFFFF" stroke-width="2" stroke-miterlimit="10" d="M444,230.1
				c3.1,16.7,35.1,2.6,40.2,1.9c2-0.3,31.6-7.9,18.1,14.4"/>
			<path clip-path="url(#SVGID_4_)" fill="#FFFFFF" d="M458.3,212.3c3.8-4.4,5.9-8.8,1.5-10c-4.4-1.2-13.1,2.2-10.3,6.1
				C451.6,211.4,455.1,215.9,458.3,212.3z"/>
			
				<ellipse transform="matrix(0.7339 -0.6793 0.6793 0.7339 -22.581 363.1164)" clip-path="url(#SVGID_4_)" fill="#4EC9F5" cx="452.2" cy="210.4" rx="0.4" ry="2.7"/>
			<path clip-path="url(#SVGID_4_)" fill="none" stroke="#FFFFFF" stroke-width="2" stroke-miterlimit="10" d="M503.4,244.6
				c-6.6,14.5,11.8,58.6,36.4,40.2c7.9-5.9,17.9-48.7,50.8-32.3"/>
			
				<rect x="460.7" y="205.1" transform="matrix(0.52 -0.8541 0.8541 0.52 43.7915 494.3536)" clip-path="url(#SVGID_4_)" fill="#FFFFFF" width="2.1" height="6.2"/>
			<path clip-path="url(#SVGID_4_)" fill="#4EC9F5" d="M595.9,253.5c-0.5,1-8.2-1.6-8.2-1.6l0.6-1.5
				C588.3,250.4,596.4,252.5,595.9,253.5z"/>
			<path clip-path="url(#SVGID_4_)" fill="none" stroke="#FFFFFF" stroke-width="2" stroke-miterlimit="10" d="M462.9,208.4
				c10.8,15.8,59.8-7.6,39.8,36.9"/>
			
				<rect x="502.8" y="238.3" transform="matrix(0.9559 0.2937 -0.2937 0.9559 93.5548 -137.3083)" clip-path="url(#SVGID_4_)" fill="#FFFFFF" stroke="#4EC9F5" stroke-miterlimit="10" width="2.2" height="9.1"/>
			
				<rect x="588" y="248.7" transform="matrix(0.272 -0.9623 0.9623 0.272 186.7923 749.9361)" clip-path="url(#SVGID_4_)" fill="#FFFFFF" width="2.2" height="5.6"/>
			<path clip-path="url(#SVGID_4_)" fill="#FFFFFF" stroke="#4EC9F5" stroke-miterlimit="10" d="M246,64.7
				c0.1,13.7,1.7,24.6,3.7,24.6c2,0,3.5-11,3.5-24.6L246,64.7z"/>
			<circle clip-path="url(#SVGID_4_)" fill="#FFFFFF" stroke="#4EC9F5" stroke-miterlimit="10" cx="245.4" cy="26.6" r="6.7"/>
			<path clip-path="url(#SVGID_4_)" fill="#FFFFFF" stroke="#4EC9F5" stroke-miterlimit="10" d="M253.3,65
				c-0.4-17.2-3.8-30.9-7.7-30.8c-3.9,0.1-6.8,13.9-6.6,31.1L253.3,65z"/>
			<path clip-path="url(#SVGID_4_)" fill="#FFFFFF" stroke="#4EC9F5" stroke-miterlimit="10" d="M257.6,15.7
				c-1.2,0.4-1.7,1.6-1.8,2.8c-0.1,1.7-0.4,6.3-0.2,7.9c0.1,0.8-4,4.2-5.8,7.4c-1.9,3.3-0.9,3.2-0.3,3.4c0.5,0.1,8.6-5.3,10.1-7.6
				c0.7-1.2,4.3-11.2,1.8-12.6C262.8,17.8,258.7,15.3,257.6,15.7z"/>
			<path clip-path="url(#SVGID_4_)" fill="#FFFFFF" stroke="#4EC9F5" stroke-miterlimit="10" d="M234.4,63.2
				c1.2-0.8,1.8-2.3,1.9-3.8c0.1-2.1,4.5-15.9,6.5-20.2c2-4.5,0.9-4.5,0.4-4.2c-1.5,0.9-3.7,4-5.9,7.9c-4.4,7.9-10.4,17.5-6.9,19.6
				C228.9,61.7,233.2,64,234.4,63.2z"/>
			<path clip-path="url(#SVGID_4_)" fill="#FFFFFF" stroke="#4EC9F5" stroke-miterlimit="10" d="M238.9,65.2
				c0.1,13.2,1.7,23.8,3.7,23.8c2,0,3.5-10.6,3.5-23.8L238.9,65.2z"/>
			<g clip-path="url(#SVGID_4_)">
				<path fill="#FFFFFF" d="M255.6,10.2c0,0,0.2,0.4,0.5,1c0.1,0.3,0.4,0.7,0.6,1.1c0.1,0.2,0.2,0.4,0.4,0.6
					c0.1,0.1,0.1,0.2,0.1,0.3c0,0.1,0,0.2,0,0.4c0.1,0.5,0.1,1,0.3,1.5c0.1,0.2,0.2,0.5,0.2,0.7c0.1,0.2,0.2,0.5,0.3,0.7
					c0.5,0.9,1.2,1.3,2,1.2c0.9-0.1,1.8-0.7,2.4-1.6c0.3-0.4,0.5-0.9,0.7-1.3c0.2-0.5,0.3-0.9,0.3-1.3c0-0.1,0-0.2,0-0.3
					c0-0.1,0-0.2,0.1-0.3c0.1-0.2,0.2-0.4,0.3-0.6c0.2-0.4,0.3-0.8,0.4-1.1c0.2-0.7,0.3-1.1,0.3-1.1s0.1,0.1,0.2,0.2
					c0.1,0.1,0.4,0.3,0.6,0.6c0.2,0.3,0.5,0.7,0.7,1.2c0.1,0.2,0.3,0.5,0.3,0.8c0.1,0.1,0.1,0.3,0,0.4c0,0.2,0,0.3-0.1,0.5
					c-0.1,0.6-0.2,1.3-0.5,2c-0.3,0.7-0.6,1.4-1.1,2.1c-0.5,0.7-1.1,1.3-1.8,1.8c-0.7,0.5-1.6,0.9-2.6,1c-1,0.1-2.1-0.1-2.9-0.6
					c-0.9-0.5-1.5-1.2-2-2c-0.2-0.4-0.4-0.7-0.6-1.1c-0.1-0.4-0.3-0.7-0.4-1.1c-0.2-0.7-0.3-1.3-0.4-1.9c0-0.1,0-0.3-0.1-0.4
					c0-0.1-0.1-0.3,0-0.4c0.1-0.3,0.2-0.5,0.3-0.8c0.2-0.5,0.4-0.9,0.6-1.2C255.3,10.6,255.6,10.2,255.6,10.2z"/>
			</g>
			
				<line clip-path="url(#SVGID_4_)" fill="none" stroke="#FFFFFF" stroke-width="3" stroke-miterlimit="10" x1="229.3" y1="10.1" x2="296.7" y2="10.1"/>
			<g clip-path="url(#SVGID_4_)">
				<path fill="#FFFFFF" d="M274.6,10.2c0,0,0.2,0.4,0.5,1c0.1,0.3,0.4,0.7,0.6,1.1c0.1,0.2,0.2,0.4,0.4,0.6
					c0.1,0.1,0.1,0.2,0.1,0.3c0,0.1,0,0.2,0,0.4c0.1,0.5,0.1,1,0.3,1.5c0.1,0.2,0.2,0.5,0.2,0.7c0.1,0.2,0.2,0.5,0.3,0.7
					c0.5,0.9,1.2,1.3,2,1.2c0.9-0.1,1.8-0.7,2.4-1.6c0.3-0.4,0.5-0.9,0.7-1.3c0.2-0.5,0.3-0.9,0.3-1.3c0-0.1,0-0.2,0-0.3
					c0-0.1,0-0.2,0.1-0.3c0.1-0.2,0.2-0.4,0.3-0.6c0.2-0.4,0.3-0.8,0.4-1.1c0.2-0.7,0.3-1.1,0.3-1.1s0.1,0.1,0.2,0.2
					c0.1,0.1,0.4,0.3,0.6,0.6c0.2,0.3,0.5,0.7,0.7,1.2c0.1,0.2,0.3,0.5,0.3,0.8c0.1,0.1,0.1,0.3,0,0.4c0,0.2,0,0.3-0.1,0.5
					c-0.1,0.6-0.2,1.3-0.5,2c-0.3,0.7-0.6,1.4-1.1,2.1c-0.5,0.7-1.1,1.3-1.8,1.8c-0.7,0.5-1.6,0.9-2.6,1c-1,0.1-2.1-0.1-2.9-0.6
					c-0.9-0.5-1.5-1.2-2-2c-0.2-0.4-0.4-0.7-0.6-1.1c-0.1-0.4-0.3-0.7-0.4-1.1c-0.2-0.7-0.3-1.3-0.4-1.9c0-0.1,0-0.3-0.1-0.4
					c0-0.1-0.1-0.3,0-0.4c0.1-0.3,0.2-0.5,0.3-0.8c0.2-0.5,0.4-0.9,0.6-1.2C274.4,10.6,274.6,10.2,274.6,10.2z"/>
			</g>
			<path clip-path="url(#SVGID_4_)" fill="none" stroke="#FFFFFF" stroke-width="2" stroke-miterlimit="10" d="M210.2,436.5
				c-15.9,40.5,90.4,102.5-18.7,121.8"/>
			<polygon clip-path="url(#SVGID_4_)" fill="#FFFFFF" stroke="#4EC9F5" stroke-miterlimit="10" points="214.2,438.1 205.6,435.1 
				213.9,416.7 218.6,418.3 			"/>
			<polyline clip-path="url(#SVGID_4_)" fill="none" stroke="#4EC9F5" stroke-miterlimit="10" points="216.1,417.5 214.4,420.1 
				216.1,422.1 213.5,423.3 215.3,425.8 212.5,427.4 214.1,429.9 210.9,431.4 212.8,433.6 			"/>
			<path clip-path="url(#SVGID_4_)" fill="#FFFFFF" d="M405.9,351.4l-13.7,9.3c-2,1.4-2.6,4.1-1.2,6.2c1.4,2,4.1,2.6,6.2,1.2
				l13.7-9.3L405.9,351.4z"/>
			<path clip-path="url(#SVGID_4_)" fill="#4EC9F5" stroke="#FFFFFF" stroke-width="0.5" stroke-miterlimit="10" d="M407.3,346.5
				c2-1.4,4.8-0.8,6.2,1.2l3.6,5.4c1.4,2,0.9,4.8-1.2,6.2l0,0c-2,1.4-4.8,0.8-6.2-1.2l-3.6-5.4C404.8,350.6,405.3,347.9,407.3,346.5
				L407.3,346.5z"/>
			<path clip-path="url(#SVGID_4_)" fill="#4EC9F5" stroke="#FFFFFF" stroke-width="0.5" stroke-miterlimit="10" d="M421.6,336.8
				c2-1.4,4.8-0.9,6.2,1.2l3.6,5.4c1.4,2,0.9,4.8-1.2,6.2l0,0c-2,1.4-4.8,0.9-6.2-1.2l-3.6-5.4C419,340.9,419.6,338.2,421.6,336.8
				L421.6,336.8z"/>
			<g clip-path="url(#SVGID_4_)">
				<circle fill="#FFFFFF" cx="418.8" cy="348.2" r="11.5"/>
				<path fill="#4EC9F5" d="M412.3,338.6c0,0,0.2-0.1,0.7-0.4c0.5-0.3,1.1-0.7,2.1-1c0.9-0.4,2.1-0.8,3.5-0.9c0.7,0,1.5,0,2.3,0
					c0.8,0.1,1.6,0.4,2.4,0.7c1.6,0.7,3.3,1.8,4.6,3.3c0.3,0.4,0.6,0.8,0.9,1.2c0.3,0.4,0.5,0.8,0.8,1.3c0.5,1,0.8,2,1,3.1
					c0.2,1.1,0.2,2.2,0.1,3.4c-0.1,1.1-0.4,2.3-0.8,3.3c-0.4,1.1-1.1,2.1-1.8,3c-0.8,0.9-1.6,1.7-2.6,2.4c-0.9,0.6-2,1.2-3.2,1.5
					c-1.1,0.3-2.3,0.5-3.5,0.5c-1.2,0-2.3-0.2-3.4-0.5c-1.1-0.3-2.1-0.8-3.1-1.4c-1.9-1.2-3.4-2.9-4.3-4.6c-1-1.8-1.4-3.7-1.4-5.5
					c0-0.9,0.1-1.7,0.3-2.5c0.2-0.8,0.5-1.5,0.8-2.1c0.6-1.3,1.4-2.2,2.1-3c0.7-0.7,1.3-1.2,1.7-1.5
					C412.1,338.8,412.3,338.6,412.3,338.6z M412.3,338.6c0,0-0.2,0.2-0.6,0.5c-0.2,0.2-0.5,0.4-0.7,0.7c-0.1,0.1-0.3,0.3-0.4,0.4
					c-0.1,0.2-0.3,0.4-0.4,0.6c-0.6,0.8-1.2,1.8-1.6,3.1c-0.2,0.6-0.4,1.3-0.5,2.1c-0.1,0.4-0.1,0.7-0.2,1.1c0,0.4,0,0.8-0.1,1.2
					c0,1.6,0.4,3.4,1.3,5c0.9,1.7,2.2,3.2,4,4.3c0.9,0.5,1.8,0.9,2.8,1.3c1,0.3,2.1,0.4,3.1,0.4c1.1,0,2.1-0.2,3.2-0.5
					c1-0.3,2-0.8,2.9-1.4c0.8-0.6,1.7-1.3,2.4-2.2c0.7-0.9,1.2-1.8,1.6-2.8c0.4-1,0.7-2,0.8-3.1c0.1-1,0.1-2.1-0.1-3.1
					c-0.2-1-0.5-2-0.9-2.8c-0.2-0.4-0.5-0.9-0.7-1.3c-0.2-0.4-0.6-0.8-0.8-1.1c-1.2-1.4-2.7-2.4-4.2-3c-0.4-0.1-0.8-0.3-1.1-0.4
					c-0.4-0.1-0.7-0.2-1.1-0.3c-0.7-0.2-1.4-0.3-2.1-0.3c-1.3-0.1-2.5,0.1-3.5,0.3c-0.2,0.1-0.5,0.1-0.7,0.2
					c-0.2,0.1-0.4,0.2-0.6,0.2c-0.4,0.1-0.7,0.3-0.9,0.4C412.6,338.5,412.3,338.6,412.3,338.6z"/>
			</g>
			<path clip-path="url(#SVGID_4_)" fill="#FFFFFF" d="M432.1,344.3l13.7-9.3c2-1.4,2.6-4.1,1.2-6.2c-1.4-2-4.1-2.6-6.2-1.2
				l-13.7,9.3L432.1,344.3z"/>
			
				<circle clip-path="url(#SVGID_4_)" fill="#4EC9F5" stroke="#FFFFFF" stroke-width="0.5" stroke-miterlimit="10" cx="432.9" cy="338.3" r="0.9"/>
			
				<circle clip-path="url(#SVGID_4_)" fill="#4EC9F5" stroke="#FFFFFF" stroke-width="0.5" stroke-miterlimit="10" cx="435.1" cy="336.8" r="0.9"/>
			
				<circle clip-path="url(#SVGID_4_)" fill="#4EC9F5" stroke="#FFFFFF" stroke-width="0.5" stroke-miterlimit="10" cx="437.4" cy="335.2" r="0.9"/>
			<g clip-path="url(#SVGID_4_)">
				<circle fill="#FFFFFF" cx="418.5" cy="348.2" r="6.4"/>
				<path fill="#4EC9F5" d="M412.3,346.5c0,0,0.1-0.1,0.2-0.4c0.1-0.3,0.2-0.7,0.5-1.2c0.2-0.2,0.3-0.5,0.5-0.8
					c0.2-0.2,0.5-0.5,0.7-0.8c0.3-0.3,0.6-0.5,1-0.8c0.4-0.2,0.8-0.4,1.2-0.6c0.9-0.3,2-0.6,3.1-0.4c0.3,0,0.5,0,0.9,0.1
					c0.3,0.1,0.5,0.2,0.8,0.3c0.3,0.1,0.5,0.2,0.8,0.4c0.3,0.2,0.6,0.3,0.9,0.5c1,0.8,1.9,1.9,2.4,3.2c0.2,0.7,0.4,1.4,0.4,2.1
					c0,0.4,0,0.7,0,1.1l-0.1,0.5l0,0.3l0,0.1l0,0.1l0,0l0,0c0,0,0-0.1,0,0.1c-0.3,1.1-1.2,2.6-2.3,3.4c-1.1,0.9-2.4,1.4-3.7,1.5
					c-1.3,0.1-2.6-0.1-3.6-0.7c-0.5-0.2-1-0.6-1.4-0.9c-0.4-0.3-0.7-0.8-1.1-1.1c-0.3-0.4-0.5-0.8-0.7-1.2c-0.2-0.4-0.3-0.8-0.4-1.2
					c-0.1-0.4-0.1-0.7-0.2-1.1c0-0.3,0-0.6,0-0.9c-0.1-0.6,0.1-1,0.2-1.3C412.2,346.6,412.3,346.5,412.3,346.5L412.3,346.5z
					 M412.4,346.5c0,0,0,0.2-0.1,0.4c0,0.3-0.2,0.7-0.1,1.3c0,0.3,0,0.6,0,0.9c0.1,0.3,0.2,0.7,0.2,1c0.1,0.4,0.3,0.7,0.5,1.1
					c0.2,0.4,0.5,0.7,0.8,1.1c0.7,0.7,1.4,1.3,2.4,1.7c1,0.5,2.1,0.5,3.3,0.4c1.2-0.2,2.3-0.7,3.2-1.5c0.9-0.8,1.6-1.9,1.9-3.1
					c0.3-1.2,0.3-2.5-0.1-3.6c-0.4-1.1-1.1-2.2-2-2.9c-0.2-0.2-0.5-0.3-0.7-0.5c-0.2-0.2-0.5-0.3-0.7-0.4c-0.3-0.1-0.5-0.2-0.8-0.3
					c-0.2-0.1-0.5-0.1-0.8-0.2c-1.1-0.2-2.1,0-3,0.2c-0.4,0.2-0.8,0.3-1.2,0.5c-0.3,0.2-0.7,0.5-1,0.7c-0.3,0.3-0.5,0.5-0.7,0.8
					c-0.2,0.3-0.3,0.5-0.5,0.7c-0.3,0.4-0.4,0.9-0.5,1.1C412.4,346.4,412.4,346.5,412.4,346.5L412.4,346.5z"/>
			</g>
			<path clip-path="url(#SVGID_4_)" fill="#FFFFFF" stroke="#4EC9F5" stroke-miterlimit="10" d="M420.8,367c0.3,0.5,0.7,0.9,1.2,1.3
				c1.5,0.9,3.2,0.7,4.6,2c5.1,4.7,1.7,11.3,2.6,17c0.6,3.6,3.7,7.7,3.3,11.4c-0.4,3.4-4.3,7.4-7.1,9.1c-1.3,0.8-2.7,2.3-4,2
				c-0.9-0.2-2.4-1.6-3.2-2.1c-2.1-1.3-4-2.5-6-4c-1.4-1-2.9-1.8-4.1-3c-2.6-2.3-5.5-4.6-7.4-7.5c-2.8-4.3-3.8-9.6-2.4-14.6
				c2.1-7.6,7.8-13.9,10.2-21.6c1-3,1.5-6.3,2.8-9.2c1.3-2.9,3.1-2.9,4.2,0.1c2.2,5.8-2.4,11.8-3,17.4c1.9-0.4,4.5-1.2,6.6-0.2
				C419.9,365.7,420.3,366.4,420.8,367z"/>
			<path clip-path="url(#SVGID_4_)" fill="#FFFFFF" d="M207.4,432.2c-0.6,1.1-3.2,6.4-3,9.1c1.7,0.4,4.9-6.3,4.6-7.6"/>
			<path clip-path="url(#SVGID_4_)" fill="#FFFFFF" d="M214.2,435.8c0.1,1,0,5.6-1.3,7c-1.6-0.8-1.4-6.5-0.6-7.1"/>
			<path clip-path="url(#SVGID_4_)" fill="none" stroke="#FFFFFF" stroke-width="2" stroke-miterlimit="10" d="M385.6,80.1
				c30-31.5-45.1-129.1,63.2-105.7"/>
			<polygon clip-path="url(#SVGID_4_)" fill="#FFFFFF" stroke="#4EC9F5" stroke-miterlimit="10" points="382.6,77.1 389.4,83.1 
				374.7,97 371,93.8 			"/>
			<polyline clip-path="url(#SVGID_4_)" fill="none" stroke="#4EC9F5" stroke-miterlimit="10" points="373,95.5 375.6,93.7 
				374.7,91.2 377.6,91.1 376.9,88.1 380.1,87.7 379.5,84.7 383,84.6 382.2,81.9 			"/>
			<path clip-path="url(#SVGID_4_)" fill="#FFFFFF" d="M386.6,85.1c1-0.8,5.4-4.7,6.2-7.3c-1.5-1-6.9,3.9-7.2,5.3"/>
			<path clip-path="url(#SVGID_4_)" fill="#FFFFFF" d="M381.7,79.3c0.3-1,2.1-5.1,3.8-6c1.2,1.3-1.1,6.5-2.1,6.8"/>
			<path clip-path="url(#SVGID_4_)" fill="#FFFFFF" stroke="#4EC9F5" stroke-miterlimit="10" d="M299.2,433.2
				c0.4,1.1-0.1,2.4-1.3,2.9l-26,10.1c-1.1,0.4-2.4-0.1-2.9-1.3l-6.3-16.2c-0.4-1.1,0.1-2.4,1.3-2.9l26-10.1
				c1.1-0.4,2.4,0.1,2.9,1.3L299.2,433.2z"/>
			<circle clip-path="url(#SVGID_4_)" fill="#4EC9F5" stroke="#FFFFFF" stroke-miterlimit="10" cx="281.5" cy="431.2" r="7.7"/>
			<circle clip-path="url(#SVGID_4_)" fill="#FFFFFF" stroke="#4EC9F5" stroke-miterlimit="10" cx="281.5" cy="431.2" r="3.7"/>
			<circle clip-path="url(#SVGID_4_)" fill="#4EC9F5" stroke="#FFFFFF" stroke-miterlimit="10" cx="281.5" cy="431.2" r="2.7"/>
			<path clip-path="url(#SVGID_4_)" fill="#4EC9F5" stroke="#FFFFFF" stroke-miterlimit="10" d="M269.7,427.5c0.4,1-0.1,2-1.1,2.4
				l-1.3,0.5c-1,0.4-2-0.1-2.4-1.1l0,0c-0.4-1,0.1-2,1.1-2.4l1.3-0.5C268.3,426,269.4,426.5,269.7,427.5L269.7,427.5z"/>
			<path clip-path="url(#SVGID_4_)" fill="#FFFFFF" d="M165.8,455.1c-0.1,0.3,0,0.7-0.1,0.9c-0.4,0-0.6-0.3-0.7-0.6
				C165.3,455.4,165.6,455.2,165.8,455.1"/>
			<path clip-path="url(#SVGID_4_)" fill="#FFFFFF" stroke="#4EC9F5" stroke-miterlimit="10" d="M163.8,416.9
				c-3.2,5.2-10.1,6.9-15.3,3.6c-5.2-3.2-6.9-10.1-3.6-15.3c3.2-5.2,10.1-6.9,15.3-3.6C165.4,404.8,167,411.6,163.8,416.9z"/>
			<path clip-path="url(#SVGID_4_)" fill="#FFFFFF" stroke="#4EC9F5" stroke-miterlimit="10" d="M149,453.1
				c4.6-15.1,3.5-28.8-2.6-30.7c-6.1-2-15,8.5-20,23.5L149,453.1z"/>
			<path clip-path="url(#SVGID_4_)" fill="#FFFFFF" stroke="#4EC9F5" stroke-miterlimit="10" d="M151.7,432.9
				c0.5,0.7,3.2,10.1,3.8,10.9c0.4,0.6,10.1,3.4,8.9,5.7c-0.7,1.3-1.5,3.2-2.5,3.2c-3.7-0.3-9.3-1.9-11.3-4.9
				c-1.3-1.9-4.5-10.1-4.6-10.7"/>
			<path clip-path="url(#SVGID_4_)" fill="#FFFFFF" d="M164.4,455.2c0.4,0.6,2.1,0.8,1.6-0.4c-0.2-0.4-4.3-11.7-5.1-13.5
				c0,0-0.2,0.1-0.1,0.5C161.3,444.4,163.7,454.2,164.4,455.2z"/>
			<g clip-path="url(#SVGID_4_)">
				<path fill="#FFFFFF" d="M166,452.1c0,0,0.1-0.1,0-0.4c0-0.3-0.1-0.6-0.3-1.1c-0.3-0.9-0.7-2.2-1.2-3.8c-0.4-1.6-1-3.4-1.3-5.4
					c-0.3-2-0.5-4.3-0.2-6.5c0.2-1.1,0.5-2.2,1.1-3.2c0.6-1,1.4-1.8,2.3-2.4c0.4-0.3,1-0.5,1.4-0.7c0.2-0.1,0.5-0.2,0.7-0.3
					c0.2-0.1,0.4-0.2,0.5-0.3c0.7-0.5,1.2-1.2,1.6-1.9c0.8-1.4,1.1-2.7,1.1-3.6c0.1-0.9-0.1-1.5-0.1-1.5s0.1,0.1,0.1,0.4
					c0.1,0.2,0.2,0.6,0.2,1.1c0,1-0.1,2.4-0.8,3.9c-0.4,0.8-0.9,1.5-1.7,2.2c-0.2,0.2-0.4,0.3-0.6,0.5c-0.2,0.1-0.4,0.2-0.6,0.3
					c-0.5,0.2-0.9,0.4-1.3,0.7c-0.8,0.5-1.5,1.3-2,2.1c-0.5,0.9-0.8,1.9-1,2.9c-0.3,2.1-0.2,4.2,0,6.2c0.3,2,0.6,3.9,1,5.4
					c0.4,1.6,0.6,2.9,0.8,3.9c0.1,0.5,0.1,0.8,0.1,1.1C166.1,452,166,452.1,166,452.1z"/>
			</g>
			<g clip-path="url(#SVGID_4_)">
				<path fill="#FFFFFF" d="M167.2,452c0,0,0.1-0.1,0.2-0.3c0.1-0.2,0.3-0.4,0.5-0.7c0.1-0.2,0.2-0.4,0.3-0.6c0-0.2,0.1-0.5,0.2-0.7
					c0-0.3,0-0.5,0-0.8c0-0.3-0.1-0.6-0.1-0.9c-0.1-0.6-0.3-1.3-0.6-2c-0.2-0.7-0.5-1.5-0.8-2.3c-0.2-0.8-0.4-1.7-0.4-2.6
					c0.1-0.9,0.3-1.9,0.7-2.7l0.2-0.3c0.1-0.2,0.1-0.2,0.2-0.3c0.1-0.2,0.2-0.4,0.4-0.5c0.3-0.4,0.7-0.7,1-0.9
					c0.7-0.5,1.4-1,2.1-1.4c0.7-0.4,1.3-0.9,1.9-1.3c0.6-0.4,1.1-0.9,1.5-1.4c0.2-0.2,0.3-0.5,0.5-0.7c0.1-0.2,0.2-0.5,0.3-0.7
					c0-0.3,0-0.5,0.1-0.7c0-0.2-0.1-0.4-0.1-0.6c-0.1-0.4-0.2-0.6-0.3-0.8c-0.1-0.2-0.1-0.3-0.1-0.3s0.1,0.1,0.2,0.3
					c0.1,0.2,0.3,0.4,0.4,0.8c0.1,0.2,0.1,0.4,0.2,0.6c0,0.2,0,0.5,0,0.8c-0.1,0.3-0.1,0.6-0.2,0.9c-0.1,0.3-0.3,0.6-0.5,0.9
					c-0.4,0.6-0.9,1.1-1.5,1.6c-0.6,0.5-1.2,1-1.9,1.5c-0.7,0.5-1.4,1-2,1.5c-0.3,0.3-0.6,0.5-0.9,0.8c-0.1,0.1-0.3,0.3-0.4,0.5
					c-0.1,0.1-0.2,0.2-0.2,0.2l-0.1,0.3c-0.4,0.7-0.6,1.5-0.7,2.3c0,0.8,0,1.6,0.2,2.4c0.4,1.5,0.9,3,1,4.4c0,0.3,0,0.7,0,1
					c-0.1,0.3-0.1,0.6-0.1,0.9c-0.1,0.3-0.2,0.5-0.3,0.7c-0.1,0.2-0.2,0.4-0.4,0.6c-0.2,0.3-0.5,0.5-0.6,0.7
					C167.3,451.9,167.2,452,167.2,452z"/>
			</g>
			
				<rect x="162.6" y="456.2" transform="matrix(0.9475 0.3197 -0.3197 0.9475 154.9431 -29.0719)" clip-path="url(#SVGID_4_)" fill="#FFFFFF" stroke="#4EC9F5" stroke-width="0.5" stroke-miterlimit="10" width="6.8" height="2.4"/>
			
				<line clip-path="url(#SVGID_4_)" fill="none" stroke="#FFFFFF" stroke-width="2" stroke-miterlimit="10" x1="-28.4" y1="286.6" x2="38.4" y2="286.6"/>
			
				<line clip-path="url(#SVGID_4_)" fill="none" stroke="#FFFFFF" stroke-width="2" stroke-miterlimit="10" x1="41.9" y1="282.7" x2="38" y2="286.6"/>
			
				<line clip-path="url(#SVGID_4_)" fill="none" stroke="#FFFFFF" stroke-width="2" stroke-miterlimit="10" x1="41.9" y1="282.7" x2="41.9" y2="265.9"/>
			
				<circle clip-path="url(#SVGID_4_)" fill="none" stroke="#FFFFFF" stroke-width="2" stroke-miterlimit="10" cx="41.5" cy="262.7" r="3.1"/>
			
				<line clip-path="url(#SVGID_4_)" fill="none" stroke="#FFFFFF" stroke-width="2" stroke-miterlimit="10" x1="-0.4" y1="307.9" x2="-8.5" y2="316"/>
			
				<line clip-path="url(#SVGID_4_)" fill="none" stroke="#FFFFFF" stroke-width="2" stroke-miterlimit="10" x1="-0.7" y1="308.2" x2="28.3" y2="308.2"/>
			
				<line clip-path="url(#SVGID_4_)" fill="none" stroke="#FFFFFF" stroke-width="2" stroke-miterlimit="10" x1="-8.1" y1="316" x2="-56" y2="316"/>
			
				<circle clip-path="url(#SVGID_4_)" fill="none" stroke="#FFFFFF" stroke-width="2" stroke-miterlimit="10" cx="31.1" cy="308.2" r="3.1"/>
			
				<line clip-path="url(#SVGID_4_)" fill="none" stroke="#FFFFFF" stroke-width="2" stroke-miterlimit="10" x1="-5.6" y1="326.4" x2="-8.8" y2="323.2"/>
			
				<line clip-path="url(#SVGID_4_)" fill="none" stroke="#FFFFFF" stroke-width="2" stroke-miterlimit="10" x1="-6" y1="326.4" x2="23" y2="326.4"/>
			
				<line clip-path="url(#SVGID_4_)" fill="none" stroke="#FFFFFF" stroke-width="2" stroke-miterlimit="10" x1="-8.5" y1="323.2" x2="-54.8" y2="323.2"/>
			
				<circle clip-path="url(#SVGID_4_)" fill="none" stroke="#FFFFFF" stroke-width="2" stroke-miterlimit="10" cx="25.8" cy="326.4" r="3.1"/>
			
				<line clip-path="url(#SVGID_4_)" fill="none" stroke="#FFFFFF" stroke-width="2" stroke-miterlimit="10" x1="29.8" y1="334.4" x2="21.7" y2="342.5"/>
			
				<line clip-path="url(#SVGID_4_)" fill="none" stroke="#FFFFFF" stroke-width="2" stroke-miterlimit="10" x1="29.8" y1="334.4" x2="36" y2="334.4"/>
			
				<line clip-path="url(#SVGID_4_)" fill="none" stroke="#FFFFFF" stroke-width="2" stroke-miterlimit="10" x1="43.6" y1="326.4" x2="35.5" y2="334.5"/>
			
				<circle clip-path="url(#SVGID_4_)" fill="none" stroke="#FFFFFF" stroke-width="2" stroke-miterlimit="10" cx="45.6" cy="324" r="3.1"/>
			
				<line clip-path="url(#SVGID_4_)" fill="none" stroke="#FFFFFF" stroke-width="2" stroke-miterlimit="10" x1="32.9" y1="341.2" x2="24.8" y2="349.3"/>
			
				<line clip-path="url(#SVGID_4_)" fill="none" stroke="#FFFFFF" stroke-width="2" stroke-miterlimit="10" x1="55.9" y1="327.9" x2="42.5" y2="341.2"/>
			
				<line clip-path="url(#SVGID_4_)" fill="none" stroke="#FFFFFF" stroke-width="2" stroke-miterlimit="10" x1="32.9" y1="341.2" x2="42.5" y2="341.2"/>
			
				<circle clip-path="url(#SVGID_4_)" fill="none" stroke="#FFFFFF" stroke-width="2" stroke-miterlimit="10" cx="57.3" cy="325.8" r="3.1"/>
			
				<line clip-path="url(#SVGID_4_)" fill="none" stroke="#FFFFFF" stroke-width="2" stroke-miterlimit="10" x1="21.7" y1="342.5" x2="-64.8" y2="342.5"/>
			
				<line clip-path="url(#SVGID_4_)" fill="none" stroke="#FFFFFF" stroke-width="2" stroke-miterlimit="10" x1="24.8" y1="349.3" x2="-61.7" y2="349.3"/>
			
				<circle clip-path="url(#SVGID_4_)" fill="none" stroke="#FFFFFF" stroke-width="2" stroke-miterlimit="10" cx="68.1" cy="311.3" r="3.1"/>
			
				<line clip-path="url(#SVGID_4_)" fill="none" stroke="#FFFFFF" stroke-width="2" stroke-miterlimit="10" x1="68.1" y1="314.4" x2="68.1" y2="330.5"/>
			
				<line clip-path="url(#SVGID_4_)" fill="none" stroke="#FFFFFF" stroke-width="2" stroke-miterlimit="10" x1="68.1" y1="330.5" x2="50" y2="348.7"/>
			
				<line clip-path="url(#SVGID_4_)" fill="none" stroke="#FFFFFF" stroke-width="2" stroke-miterlimit="10" x1="50" y1="348.7" x2="36.8" y2="348.7"/>
			
				<line clip-path="url(#SVGID_4_)" fill="none" stroke="#FFFFFF" stroke-width="2" stroke-miterlimit="10" x1="36.9" y1="348.7" x2="29.8" y2="355.8"/>
			
				<line clip-path="url(#SVGID_4_)" fill="none" stroke="#FFFFFF" stroke-width="2" stroke-miterlimit="10" x1="-16.1" y1="310" x2="-64.1" y2="310"/>
			
				<line clip-path="url(#SVGID_4_)" fill="none" stroke="#FFFFFF" stroke-width="2" stroke-miterlimit="10" x1="-6.9" y1="300.7" x2="-16.2" y2="310"/>
			
				<line clip-path="url(#SVGID_4_)" fill="none" stroke="#FFFFFF" stroke-width="2" stroke-miterlimit="10" x1="20.6" y1="301.1" x2="-7.4" y2="301.1"/>
			
				<line clip-path="url(#SVGID_4_)" fill="none" stroke="#FFFFFF" stroke-width="2" stroke-miterlimit="10" x1="24.8" y1="296.5" x2="20.2" y2="301.1"/>
			
				<line clip-path="url(#SVGID_4_)" fill="none" stroke="#FFFFFF" stroke-width="2" stroke-miterlimit="10" x1="52.5" y1="296.5" x2="24.5" y2="296.5"/>
			
				<circle clip-path="url(#SVGID_4_)" fill="none" stroke="#FFFFFF" stroke-width="2" stroke-miterlimit="10" cx="55.3" cy="296.2" r="3.1"/>
			
				<line clip-path="url(#SVGID_4_)" fill="none" stroke="#FFFFFF" stroke-width="2" stroke-miterlimit="10" x1="489.6" y1="118.1" x2="422.8" y2="118.1"/>
			
				<line clip-path="url(#SVGID_4_)" fill="none" stroke="#FFFFFF" stroke-width="2" stroke-miterlimit="10" x1="419.3" y1="114.2" x2="423.2" y2="118.1"/>
			
				<line clip-path="url(#SVGID_4_)" fill="none" stroke="#FFFFFF" stroke-width="2" stroke-miterlimit="10" x1="419.3" y1="114.2" x2="419.3" y2="97.4"/>
			
				<circle clip-path="url(#SVGID_4_)" fill="none" stroke="#FFFFFF" stroke-width="2" stroke-miterlimit="10" cx="419.7" cy="94.2" r="3.1"/>
			
				<line clip-path="url(#SVGID_4_)" fill="none" stroke="#FFFFFF" stroke-width="2" stroke-miterlimit="10" x1="461.6" y1="139.4" x2="469.7" y2="147.5"/>
			
				<line clip-path="url(#SVGID_4_)" fill="none" stroke="#FFFFFF" stroke-width="2" stroke-miterlimit="10" x1="461.9" y1="139.7" x2="432.9" y2="139.7"/>
			
				<line clip-path="url(#SVGID_4_)" fill="none" stroke="#FFFFFF" stroke-width="2" stroke-miterlimit="10" x1="469.3" y1="147.5" x2="517.2" y2="147.5"/>
			
				<circle clip-path="url(#SVGID_4_)" fill="none" stroke="#FFFFFF" stroke-width="2" stroke-miterlimit="10" cx="430.1" cy="139.7" r="3.1"/>
			
				<line clip-path="url(#SVGID_4_)" fill="none" stroke="#FFFFFF" stroke-width="2" stroke-miterlimit="10" x1="466.7" y1="157.9" x2="470" y2="154.7"/>
			
				<line clip-path="url(#SVGID_4_)" fill="none" stroke="#FFFFFF" stroke-width="2" stroke-miterlimit="10" x1="467.2" y1="157.9" x2="438.2" y2="157.9"/>
			
				<line clip-path="url(#SVGID_4_)" fill="none" stroke="#FFFFFF" stroke-width="2" stroke-miterlimit="10" x1="469.7" y1="154.7" x2="516" y2="154.7"/>
			
				<circle clip-path="url(#SVGID_4_)" fill="none" stroke="#FFFFFF" stroke-width="2" stroke-miterlimit="10" cx="435.4" cy="157.9" r="3.1"/>
			
				<line clip-path="url(#SVGID_4_)" fill="none" stroke="#FFFFFF" stroke-width="2" stroke-miterlimit="10" x1="431.4" y1="165.9" x2="439.5" y2="174"/>
			
				<line clip-path="url(#SVGID_4_)" fill="none" stroke="#FFFFFF" stroke-width="2" stroke-miterlimit="10" x1="431.4" y1="165.9" x2="425.2" y2="165.9"/>
			
				<line clip-path="url(#SVGID_4_)" fill="none" stroke="#FFFFFF" stroke-width="2" stroke-miterlimit="10" x1="417.6" y1="157.9" x2="425.7" y2="166"/>
			
				<circle clip-path="url(#SVGID_4_)" fill="none" stroke="#FFFFFF" stroke-width="2" stroke-miterlimit="10" cx="415.6" cy="155.5" r="3.1"/>
			
				<line clip-path="url(#SVGID_4_)" fill="none" stroke="#FFFFFF" stroke-width="2" stroke-miterlimit="10" x1="428.3" y1="172.7" x2="436.4" y2="180.8"/>
			
				<line clip-path="url(#SVGID_4_)" fill="none" stroke="#FFFFFF" stroke-width="2" stroke-miterlimit="10" x1="405.3" y1="159.4" x2="418.6" y2="172.7"/>
			
				<line clip-path="url(#SVGID_4_)" fill="none" stroke="#FFFFFF" stroke-width="2" stroke-miterlimit="10" x1="428.3" y1="172.7" x2="418.6" y2="172.7"/>
			
				<circle clip-path="url(#SVGID_4_)" fill="none" stroke="#FFFFFF" stroke-width="2" stroke-miterlimit="10" cx="403.9" cy="157.3" r="3.1"/>
			
				<line clip-path="url(#SVGID_4_)" fill="none" stroke="#FFFFFF" stroke-width="2" stroke-miterlimit="10" x1="439.5" y1="174" x2="526" y2="174"/>
			
				<line clip-path="url(#SVGID_4_)" fill="none" stroke="#FFFFFF" stroke-width="2" stroke-miterlimit="10" x1="436.4" y1="180.8" x2="522.9" y2="180.8"/>
			
				<circle clip-path="url(#SVGID_4_)" fill="none" stroke="#FFFFFF" stroke-width="2" stroke-miterlimit="10" cx="393" cy="142.8" r="3.1"/>
			
				<line clip-path="url(#SVGID_4_)" fill="none" stroke="#FFFFFF" stroke-width="2" stroke-miterlimit="10" x1="393" y1="145.9" x2="393" y2="162"/>
			
				<line clip-path="url(#SVGID_4_)" fill="none" stroke="#FFFFFF" stroke-width="2" stroke-miterlimit="10" x1="393" y1="162" x2="411.2" y2="180.2"/>
			
				<line clip-path="url(#SVGID_4_)" fill="none" stroke="#FFFFFF" stroke-width="2" stroke-miterlimit="10" x1="411.2" y1="180.2" x2="424.4" y2="180.2"/>
			
				<line clip-path="url(#SVGID_4_)" fill="none" stroke="#FFFFFF" stroke-width="2" stroke-miterlimit="10" x1="424.2" y1="180.2" x2="431.4" y2="187.3"/>
			
				<line clip-path="url(#SVGID_4_)" fill="none" stroke="#FFFFFF" stroke-miterlimit="10" x1="477.3" y1="141.5" x2="525.3" y2="141.5"/>
			
				<line clip-path="url(#SVGID_4_)" fill="none" stroke="#FFFFFF" stroke-width="2" stroke-miterlimit="10" x1="468.1" y1="132.2" x2="477.3" y2="141.5"/>
			
				<line clip-path="url(#SVGID_4_)" fill="none" stroke="#FFFFFF" stroke-width="2" stroke-miterlimit="10" x1="440.5" y1="132.6" x2="468.6" y2="132.6"/>
			
				<line clip-path="url(#SVGID_4_)" fill="none" stroke="#FFFFFF" stroke-width="2" stroke-miterlimit="10" x1="436.3" y1="128" x2="441" y2="132.6"/>
			
				<line clip-path="url(#SVGID_4_)" fill="none" stroke="#FFFFFF" stroke-width="2" stroke-miterlimit="10" x1="408.7" y1="128" x2="436.7" y2="128"/>
			
				<circle clip-path="url(#SVGID_4_)" fill="none" stroke="#FFFFFF" stroke-width="2" stroke-miterlimit="10" cx="405.9" cy="127.7" r="3.1"/>
			
				<line clip-path="url(#SVGID_4_)" fill="none" stroke="#FFFFFF" stroke-width="2" stroke-miterlimit="10" x1="431.4" y1="187.3" x2="481.5" y2="187.3"/>
			<path clip-path="url(#SVGID_4_)" fill="none" stroke="#FFFFFF" stroke-width="2" stroke-miterlimit="10" d="M332.8,54.6
				c0.5,3.4-2.7,7,1,8.1c1.2,0.4,13.7,1.4,12.8,3.5c-1.5,3.2-21.9-3.5-19,1.8c1.3,2.4,18.1-0.1,19.1,4.1c1,4.7-12.5-0.2-18.8,1.4
				c-1.1,0.3-2.2,4.8,1.1,6.8"/>
			<path clip-path="url(#SVGID_4_)" fill="none" stroke="#FFFFFF" stroke-width="3" stroke-miterlimit="10" d="M36.9,174.9
				c0.4,0.1,31.3-4.3,33.8-4.8c0.5,4.9,2.3,10.6,0.9,13.8c-4,9.3-16.3,13.2-24.1,7.6c-3.9-2.8-6.1-10-6.8-16.4"/>
			<path clip-path="url(#SVGID_4_)" fill="#FFFFFF" d="M36.5,173.2c-0.3,0-1.2,0.1-1.5,0.2c0.1,1.4,1.1,2.6,2.4,3.4
				c0.8,0.4,3.5,3.7,4.7,4.3c0-0.8-1.9-4.5-2.2-5.2c-0.2-0.5-0.2-1.5-0.6-1.9c-0.4-0.4-1.4-0.3-2-0.6"/>
			<path clip-path="url(#SVGID_4_)" fill="none" stroke="#FFFFFF" stroke-width="3" stroke-miterlimit="10" d="M111.2,163.8
				c-0.4,0.2-31.2,5-33.7,5.3c0.9,5,1,11.3,3.3,14c6.6,8,19.5,8.4,25.3,0.4c2.9-4,2.9-11.8,1.6-18.4"/>
			<path clip-path="url(#SVGID_4_)" fill="#FFFFFF" d="M111.4,162.2c0.3,0,1.2-0.2,1.5-0.2c0.3,1.4-0.2,2.8-1.3,3.9
				c-0.6,0.6-2.3,4.6-3.2,5.5c-0.2-0.7,0.5-4.8,0.5-5.6c0-0.5-0.3-1.5,0-2c0.3-0.5,1.3-0.7,1.7-1.2"/>
			<path clip-path="url(#SVGID_4_)" fill="none" stroke="#FFFFFF" stroke-width="3" stroke-miterlimit="10" d="M71.2,174.1
				c1.1-1.7,5.3-2.3,6.9-1"/>
			
				<ellipse transform="matrix(0.991 -0.1341 0.1341 0.991 -23.7211 7.7122)" clip-path="url(#SVGID_4_)" fill="#FFFFFF" cx="45.4" cy="179.9" rx="7.5" ry="2.8"/>
			
				<ellipse transform="matrix(0.365 0.931 -0.931 0.365 192.082 77.5319)" clip-path="url(#SVGID_4_)" fill="#FFFFFF" cx="39.2" cy="179.6" rx="2.7" ry="1.6"/>
			
				<rect x="48.4" y="176.4" transform="matrix(0.9915 -0.1305 0.1305 0.9915 -22.8315 8.7132)" clip-path="url(#SVGID_4_)" fill="none" stroke="#FFFFFF" stroke-width="0.5" stroke-miterlimit="10" width="13.4" height="4.3"/>
			
				<rect x="58.3" y="176" transform="matrix(0.9899 -0.142 0.142 0.9899 -24.69 10.181)" clip-path="url(#SVGID_4_)" fill="#FFFFFF" width="1.4" height="4.2"/>
		</g>
	</g>
</g>
<g id="Type">
	<path fill="#FFFFFF" d="M151.2,219.7h-21V105.3h68.5v15.9h-47.5v31.2h40.4v16.2h-40.4V219.7z"/>
	<path fill="#FFFFFF" d="M277.6,219.7h-68.3V105.3h68.3v16h-47.4v31.1h40.3v16.2h-40.3v35l47.4-0.1V219.7z"/>
	<path fill="#FFFFFF" d="M287.6,121.5v-16.2h85.2v16.2h-32.4v98.2h-20.9v-98.2H287.6z"/>
	<path fill="#FFFFFF" d="M138.3,336.1V234.7h3.1v101.4c0,2.3,0.8,4.5,2.4,6.6c1.6,2.1,3.9,3.2,6.9,3.2c1,0,2.1-0.1,3.2-0.2
		c1.1-0.2,2.1-0.3,3-0.5c0.9-0.2,2-0.4,3.3-0.7l1.4,3c-1.3,0.3-2.5,0.5-3.6,0.7c-1,0.2-2.2,0.3-3.5,0.5c-1.3,0.2-2.6,0.2-4,0.2
		c-3.9,0-7-1.3-9.1-3.8C139.3,342.5,138.3,339.5,138.3,336.1z"/>
	<path fill="#FFFFFF" d="M261.5,344.2v3.1c-1.8-0.1-3.1-0.8-4.1-1.9c-1-1.2-1.5-2.6-1.5-4.3v-7.5c-4.1,5.3-9.3,9.1-15.5,11.6
		c-6.2,2.4-12.4,3.7-18.7,3.7c-3.6,0-7-0.6-10.3-1.9c-3.2-1.3-6-3.1-8.3-5.3c-2.3-2.2-4.2-4.8-5.5-7.8c-1.3-3-2-6.2-2-9.6
		c0-4.4,1.1-8,3.3-11c2.2-3,4.9-5.3,8.2-7.1c3.3-1.8,6.8-3,10.7-3.8c3.9-0.8,7.6-1.2,11.1-1.2c6.6,0,12.3,0.5,16.9,1.6
		c4.7,1.1,8,2,10.1,2.9v-9.2c0-4.1-0.6-7.9-1.9-11.3c-1.2-3.4-3-6.4-5.4-8.9c-2.3-2.5-5.1-4.4-8.3-5.7c-3.2-1.3-6.8-2-10.9-2
		c-3.9,0-8.1,0.9-12.6,2.6c-4.5,1.7-9,4.2-13.5,7.4l-1.9-2.5c4.2-2.9,8.7-5.4,13.4-7.5c4.7-2.1,9.6-3.1,14.5-3.1
		c4.9,0,9.1,0.8,12.8,2.4c3.7,1.6,6.8,3.8,9.2,6.6c2.5,2.8,4.3,6.1,5.6,9.9c1.2,3.8,1.9,7.8,1.9,12.2v44.6c0.2,0.9,0.5,1.7,0.8,2.3
		C260.1,344,260.7,344.2,261.5,344.2z M253.6,331.5c1.6-2.3,2.3-4.4,2.3-6.4v-16c-4.5-1.8-8.9-3-13.4-3.7c-4.5-0.7-9-1.1-13.6-1.1
		c-3.3,0-6.7,0.3-10.3,1c-3.5,0.7-6.8,1.8-9.7,3.3c-3,1.6-5.4,3.6-7.3,6.1c-1.9,2.5-2.9,5.7-2.9,9.4c0,3.3,0.6,6.3,1.9,8.9
		c1.3,2.6,3,4.9,5.1,6.8c2.1,1.9,4.6,3.3,7.3,4.3c2.7,1,5.6,1.6,8.6,1.6c2.9,0,5.9-0.3,9-0.9c3.1-0.6,6.1-1.4,8.9-2.6
		c2.8-1.1,5.5-2.6,7.9-4.4C250,336.1,252,334,253.6,331.5z"/>
	<path fill="#FFFFFF" d="M368.8,307.6c-0.2,5.5-1.3,10.7-3.3,15.8c-2,5-4.7,9.5-8.2,13.3c-3.5,3.8-7.5,6.9-12.2,9.2
		c-4.7,2.3-9.7,3.4-15.2,3.4c-3.2,0-6.3-0.5-9.4-1.4c-3.1-0.9-6-2.2-8.7-3.9c-2.7-1.7-5.3-3.6-7.6-5.8c-2.3-2.2-4.3-4.6-5.8-7.2
		v16.8h-3.1V234.3h3.1v51.6c4.1-5.8,8.9-10.6,14.3-14.4c5.4-3.8,11.6-5.7,18.6-5.7c5.9,0,11.2,1.2,15.8,3.7
		c4.7,2.5,8.6,5.7,11.7,9.7c3.2,4,5.6,8.5,7.3,13.4C367.9,297.7,368.8,302.7,368.8,307.6z M365.7,307.6c0-5-0.8-9.8-2.5-14.4
		c-1.7-4.7-4-8.8-7.1-12.4c-3.1-3.6-6.7-6.4-10.9-8.6c-4.2-2.2-8.8-3.3-13.9-3.3c-3.8,0-7.4,0.6-10.8,1.9c-3.4,1.3-6.4,3-9.2,5.2
		c-2.7,2.2-5.2,4.7-7.4,7.5c-2.2,2.8-4,5.7-5.6,8.9v29.1c0,3.3,1.1,6.5,3.2,9.5c2.1,3,4.8,5.6,7.9,7.8c3.2,2.2,6.6,4,10.3,5.4
		c3.7,1.3,7.1,2,10.2,2c5.2,0,10-1.1,14.4-3.3c4.4-2.2,8.2-5.2,11.3-8.8c3.2-3.6,5.6-7.7,7.4-12.3
		C364.8,317.1,365.7,312.4,365.7,307.6z"/>
</g>
<g id="Sub_type">
	<rect x="129.5" y="360.9" fill="none" width="243.6" height="50.9"/>
	<text transform="matrix(1 0 0 1 130.49 375.6177)"><tspan x="0" y="0" fill="#FFFFFF" font-family="'Junction-Regular'" font-size="18">Future Everyday Technology</tspan><tspan x="63" y="24" fill="#FFFFFF" font-family="'Junction-Regular'" font-size="18">Research Lab</tspan></text>
</g>
</svg>
