<?xml version="1.0" encoding="utf-8"?>
<!-- Generator: Adobe Illustrator 17.1.0, SVG Export Plug-In . SVG Version: 6.00 Build 0)  -->
<!DOCTYPE svg PUBLIC "-//W3C//DTD SVG 1.1//EN" "http://www.w3.org/Graphics/SVG/1.1/DTD/svg11.dtd">
<svg version="1.1" id="Layer_1" xmlns="http://www.w3.org/2000/svg" xmlns:xlink="http://www.w3.org/1999/xlink" x="0px" y="0px"
	 viewBox="0 0 199 69" enable-background="new 0 0 199 69" xml:space="preserve">
<g>
	<g>
		<g>
			<path fill="#FFFFFF" d="M12.686,52.909H3.88V4.852h28.766v6.674h-19.96v13.104H29.66v6.795H12.686V52.909z"/>
			<path fill="#FFFFFF" d="M65.768,52.909H37.062V4.852h28.707v6.735H45.869v13.043h16.912v6.795H45.869v14.688l19.899-0.04V52.909z
				"/>
			<path fill="#FFFFFF" d="M69.985,11.648V4.852h35.776v6.795H92.139v41.261h-8.776V11.648H69.985z"/>
		</g>
	</g>
	<g>
		<path fill="#FFFFFF" d="M113.65,47.712V4.678h1.318v43.034c0,0.967,0.34,1.901,1.022,2.801c0.68,0.901,1.657,1.351,2.931,1.351
			c0.439,0,0.89-0.033,1.353-0.099c0.461-0.066,0.888-0.131,1.285-0.197c0.395-0.066,0.856-0.165,1.383-0.296l0.593,1.252
			c-0.572,0.132-1.078,0.231-1.517,0.297c-0.439,0.065-0.933,0.131-1.482,0.198c-0.551,0.066-1.11,0.098-1.681,0.098
			c-1.671,0-2.955-0.538-3.856-1.614C114.1,50.426,113.65,49.162,113.65,47.712z"/>
		<path fill="#FFFFFF" d="M155.432,51.469v1.317c-0.747-0.043-1.329-0.317-1.747-0.823c-0.418-0.505-0.626-1.109-0.626-1.812v-3.163
			c-1.757,2.24-3.945,3.877-6.557,4.909c-2.616,1.032-5.263,1.549-7.941,1.549c-1.538,0-2.989-0.275-4.349-0.824
			c-1.362-0.548-2.537-1.295-3.526-2.241c-0.989-0.944-1.769-2.053-2.34-3.328c-0.571-1.274-0.856-2.635-0.856-4.086
			c0-1.846,0.461-3.395,1.384-4.646c0.922-1.252,2.076-2.251,3.459-2.999c1.385-0.747,2.9-1.285,4.548-1.615
			c1.647-0.33,3.218-0.494,4.711-0.494c2.811,0,5.208,0.23,7.184,0.691c1.977,0.461,3.405,0.868,4.284,1.22v-3.888
			c0-1.758-0.263-3.361-0.79-4.812c-0.527-1.45-1.285-2.702-2.274-3.756c-0.989-1.055-2.165-1.867-3.526-2.438
			c-1.362-0.57-2.9-0.857-4.613-0.857c-1.671,0-3.451,0.363-5.338,1.087c-1.889,0.725-3.8,1.769-5.734,3.13l-0.79-1.055
			c1.801-1.229,3.701-2.284,5.701-3.163c1.999-0.878,4.053-1.318,6.162-1.318c2.065,0,3.877,0.34,5.436,1.021
			c1.559,0.682,2.868,1.615,3.921,2.801c1.055,1.186,1.846,2.581,2.373,4.185c0.527,1.604,0.791,3.328,0.791,5.174v18.914
			c0.088,0.395,0.198,0.714,0.33,0.955C154.839,51.348,155.079,51.469,155.432,51.469z M152.07,46.064
			c0.66-0.965,0.989-1.866,0.989-2.702v-6.788c-1.889-0.747-3.79-1.274-5.701-1.582c-1.91-0.307-3.833-0.461-5.767-0.461
			c-1.406,0-2.855,0.143-4.349,0.428c-1.494,0.287-2.867,0.758-4.119,1.417c-1.252,0.659-2.285,1.526-3.097,2.603
			c-0.814,1.077-1.221,2.405-1.221,3.987c0,1.407,0.275,2.669,0.825,3.789c0.549,1.12,1.274,2.076,2.175,2.867
			c0.899,0.791,1.933,1.407,3.098,1.846c1.162,0.44,2.382,0.659,3.657,0.659c1.229,0,2.505-0.121,3.823-0.363
			c1.317-0.241,2.58-0.602,3.789-1.087c1.208-0.483,2.329-1.109,3.361-1.878C150.565,48.032,151.411,47.12,152.07,46.064z"/>
		<path fill="#FFFFFF" d="M196.158,35.784c-0.089,2.329-0.55,4.559-1.383,6.688c-0.835,2.132-1.989,4.01-3.46,5.636
			c-1.473,1.625-3.197,2.922-5.173,3.888c-1.978,0.966-4.13,1.45-6.459,1.45c-1.362,0-2.692-0.198-3.987-0.594
			c-1.296-0.396-2.527-0.943-3.69-1.647c-1.166-0.703-2.242-1.527-3.23-2.472c-0.988-0.944-1.812-1.965-2.471-3.064v7.117h-1.318
			V4.678h1.318v21.879c1.756-2.459,3.778-4.492,6.064-6.096c2.283-1.604,4.918-2.405,7.907-2.405c2.504,0,4.745,0.527,6.722,1.581
			c1.978,1.055,3.634,2.428,4.976,4.119c1.339,1.692,2.373,3.592,3.098,5.701C195.795,31.566,196.158,33.675,196.158,35.784z
			 M194.84,35.784c0-2.109-0.352-4.152-1.054-6.129c-0.704-1.977-1.703-3.723-2.997-5.239c-1.296-1.516-2.835-2.734-4.613-3.658
			c-1.78-0.922-3.747-1.384-5.899-1.384c-1.626,0-3.153,0.275-4.58,0.824c-1.428,0.55-2.725,1.285-3.887,2.208
			c-1.165,0.922-2.209,1.977-3.131,3.163c-0.922,1.187-1.713,2.438-2.372,3.756V41.65c0,1.406,0.45,2.746,1.351,4.02
			c0.9,1.275,2.02,2.384,3.361,3.329c1.339,0.945,2.789,1.702,4.349,2.273c1.558,0.571,2.998,0.857,4.316,0.857
			c2.197,0,4.229-0.472,6.096-1.417c1.868-0.944,3.472-2.184,4.811-3.723c1.339-1.538,2.383-3.284,3.13-5.24
			C194.466,39.794,194.84,37.806,194.84,35.784z"/>
	</g>
</g>
<path fill="none" stroke="#000000" stroke-miterlimit="10" d="M124.775,22.653"/>
<g>
	<rect x="3.083" y="56.375" fill="none" width="205.5" height="34"/>
	<path fill="#FFFFFF" d="M3.881,64.165v-7.32h3.023c0.618,0,0.999-0.047,0.999-0.047v0.751H4.718v2.462h2.709v0.723H4.718v3.432
		H3.881z"/>
	<path fill="#FFFFFF" d="M12.338,62.245v-3.308h0.799v5.229h-0.799v-0.922c-0.589,0.561-1.435,1.036-2.281,1.036
		c-0.865,0-1.208-0.618-1.208-1.626v-3.717h0.799v3.717c0,0.514,0.114,0.856,0.409,0.856C10.998,63.509,11.835,62.768,12.338,62.245
		z"/>
	<path fill="#FFFFFF" d="M14.35,58.917h0.665v-1.882h0.799v1.882h1.255v0.666h-1.255v3.061c0,0.352,0,0.941,0.494,0.941
		c0.314,0,0.551-0.143,0.789-0.371l0.485,0.466c-0.418,0.438-0.884,0.599-1.483,0.599c-0.798,0-1.084-0.646-1.084-1.635v-3.061
		H14.35V58.917z"/>
	<path fill="#FFFFFF" d="M21.857,62.245v-3.308h0.799v5.229h-0.799v-0.922c-0.589,0.561-1.435,1.036-2.281,1.036
		c-0.865,0-1.208-0.618-1.208-1.626v-3.717h0.799v3.717c0,0.514,0.114,0.856,0.409,0.856C20.517,63.509,21.354,62.768,21.857,62.245
		z"/>
	<path fill="#FFFFFF" d="M25.047,58.937v0.713c0.333-0.57,0.789-0.827,1.321-0.827c0.817,0,1.264,0.522,1.264,0.522l-0.551,0.533
		c0,0-0.228-0.295-0.675-0.295c-0.608,0-1.084,0.732-1.359,1.312v3.27h-0.799v-5.229H25.047z"/>
	<path fill="#FFFFFF" d="M30.302,58.823c1.949,0,2.11,1.949,2.11,2.319v0.371h-3.565c-0.047,1.236,0.485,2.082,1.493,2.082
		c0.275,0,0.894,0.028,1.616-0.922l0.484,0.466c-0.95,1.179-1.711,1.141-2.101,1.141c-1.521,0-2.282-1.236-2.282-2.671
		C28.058,60.087,28.933,58.823,30.302,58.823z M28.952,60.81h2.652c-0.085-0.533-0.409-1.303-1.302-1.303
		C29.598,59.507,29.161,60.077,28.952,60.81z"/>
	<path fill="#FFFFFF" d="M36.294,64.165v-7.32h3.023c0.618,0,0.999-0.047,0.999-0.047v0.76h-3.185v2.453h2.709v0.723h-2.709v2.709
		h2.319c0.618,0,0.998-0.047,0.998-0.047v0.77H36.294z"/>
	<path fill="#FFFFFF" d="M41.881,58.937l1.359,4.04l0.028,0.181c0.009,0.048,0.019-0.152,0.028-0.181
		c0.428-1.625,1.227-3.793,1.502-4.04h0.865c-0.741,0.799-2.015,5.229-2.015,5.229h-0.694l-1.996-5.229H41.881z"/>
	<path fill="#FFFFFF" d="M48.456,58.823c1.949,0,2.11,1.949,2.11,2.319v0.371h-3.565c-0.047,1.236,0.485,2.082,1.493,2.082
		c0.275,0,0.894,0.028,1.616-0.922l0.485,0.466c-0.95,1.179-1.711,1.141-2.101,1.141c-1.521,0-2.282-1.236-2.282-2.671
		C46.212,60.087,47.086,58.823,48.456,58.823z M47.105,60.81h2.652c-0.085-0.533-0.409-1.303-1.302-1.303
		C47.752,59.507,47.315,60.077,47.105,60.81z"/>
	<path fill="#FFFFFF" d="M52.777,58.937v0.713c0.333-0.57,0.789-0.827,1.321-0.827c0.817,0,1.264,0.522,1.264,0.522l-0.551,0.533
		c0,0-0.228-0.295-0.675-0.295c-0.608,0-1.084,0.732-1.359,1.312v3.27h-0.799v-5.229H52.777z"/>
	<path fill="#FFFFFF" d="M56.32,58.937l1.417,3.669c0.656-1.606,1.455-3.517,1.635-3.669h0.903
		c-0.266,0.257-0.409,0.514-2.481,5.599c-0.238,0.589-0.485,1.198-0.97,1.664c-0.513,0.495-1.017,0.561-1.35,0.58l-0.2-0.694
		c0.58-0.038,0.808-0.209,1.007-0.409c0.229-0.219,0.399-0.476,0.761-1.35L57.3,63.69l-1.825-4.753H56.32z"/>
	<path fill="#FFFFFF" d="M60.709,61.636c0-1.777,0.855-2.813,2.215-2.813c0.513,0,1.083,0.256,1.625,0.722V56.37h0.798v6.54
		c0,0-0.057,0.675,0.551,0.875l-0.504,0.514c-0.656-0.238-0.76-0.723-0.798-1.018c-0.504,0.571-1.169,0.97-1.987,0.96
		C61.451,64.231,60.709,63.015,60.709,61.636z M64.55,62.207v-1.739c-0.523-0.514-1.131-0.865-1.625-0.865
		c-0.846,0-1.397,0.751-1.397,2.034c0,0.96,0.418,1.787,1.083,1.835C63.618,63.547,64.246,62.691,64.55,62.207z"/>
	<path fill="#FFFFFF" d="M66.998,59.649c0.342-0.19,1.455-0.827,2.51-0.827c1.093,0,1.264,1.007,1.264,1.502v2.813
		c0,0.038-0.009,0.418,0.513,0.666l-0.513,0.476c-0.456-0.181-0.646-0.485-0.732-0.818c-0.456,0.485-1.083,0.818-1.787,0.818
		c-0.209,0-1.474-0.105-1.474-1.426c0-0.675,0.276-1.473,1.882-1.711c0.694-0.095,1.093-0.162,1.321-0.219v-0.599
		c0-0.2-0.047-0.761-0.589-0.761c-0.808,0-2.082,0.742-2.082,0.732C67.312,60.287,66.989,59.668,66.998,59.649z M69.983,62.729
		v-1.122c-0.285,0.057-0.618,0.104-1.236,0.2c-1.036,0.162-1.188,0.608-1.188,1.045c0,0.656,0.523,0.751,0.666,0.761
		C68.89,63.661,69.603,63.205,69.983,62.729z"/>
	<path fill="#FFFFFF" d="M72.603,58.937l1.417,3.669c0.656-1.606,1.455-3.517,1.635-3.669h0.903
		c-0.266,0.257-0.409,0.514-2.481,5.599c-0.238,0.589-0.485,1.198-0.97,1.664c-0.513,0.495-1.017,0.561-1.35,0.58l-0.199-0.694
		c0.58-0.038,0.808-0.209,1.007-0.409c0.229-0.219,0.399-0.476,0.761-1.35l0.256-0.637l-1.825-4.753H72.603z"/>
	<path fill="#FFFFFF" d="M79.015,56.845h5.152v0.723H81.99v6.597h-0.836v-6.597h-2.139V56.845z"/>
	<path fill="#FFFFFF" d="M86.703,58.823c1.949,0,2.11,1.949,2.11,2.319v0.371h-3.565c-0.047,1.236,0.485,2.082,1.493,2.082
		c0.275,0,0.894,0.028,1.616-0.922l0.485,0.466c-0.95,1.179-1.711,1.141-2.101,1.141c-1.521,0-2.282-1.236-2.282-2.671
		C84.459,60.087,85.333,58.823,86.703,58.823z M85.353,60.81h2.652c-0.085-0.533-0.409-1.303-1.302-1.303
		C85.999,59.507,85.562,60.077,85.353,60.81z"/>
	<path fill="#FFFFFF" d="M93.791,59.659l-0.504,0.475c0,0-0.323-0.599-1.122-0.599c-0.656,0-1.426,0.684-1.426,2.11
		c0,1.045,0.542,1.93,1.378,1.93c0.371,0,0.713-0.066,1.273-0.599l0.495,0.476c-0.751,0.77-1.283,0.827-1.768,0.827
		c-1.312,0-2.177-1.15-2.177-2.633c0-1.968,1.227-2.823,2.244-2.823C93.258,58.823,93.791,59.659,93.791,59.659z"/>
	<path fill="#FFFFFF" d="M95.052,64.165V56.37h0.799v3.574c0.58-0.561,1.426-1.122,2.281-1.122c0.865,0,1.208,0.618,1.208,1.625
		v3.717h-0.799v-3.717c0-0.514-0.114-0.827-0.409-0.827c-0.988,0-1.844,0.789-2.281,1.245v3.299H95.052z"/>
	<path fill="#FFFFFF" d="M100.79,64.165v-5.229h0.799v1.008c0.58-0.561,1.426-1.122,2.281-1.122c0.865,0,1.208,0.618,1.208,1.625
		v3.717h-0.799v-3.717c0-0.514-0.114-0.827-0.409-0.827c-0.951,0-1.777,0.732-2.281,1.245v3.299H100.79z"/>
	<path fill="#FFFFFF" d="M108.514,58.823c1.141,0,2.272,0.741,2.272,2.728c0,2.015-1.131,2.729-2.272,2.729
		c-1.141,0-2.272-0.666-2.272-2.729C106.242,59.555,107.374,58.823,108.514,58.823z M108.514,59.479
		c-0.722,0-1.473,0.551-1.473,2.072c0,1.502,0.751,2.082,1.473,2.082c0.723,0,1.474-0.551,1.474-2.082
		C109.988,60.077,109.237,59.479,108.514,59.479z"/>
	<path fill="#FFFFFF" d="M112.883,56.37v6.407c0,0.218,0,0.503,0.124,0.627c0.143,0.143,0.342,0.2,0.608,0.2l-0.028,0.675
		c-0.295,0-0.865-0.029-1.16-0.323c-0.333-0.333-0.333-0.827-0.333-1.179V56.37H112.883z"/>
	<path fill="#FFFFFF" d="M116.722,58.823c1.141,0,2.272,0.741,2.272,2.728c0,2.015-1.131,2.729-2.272,2.729
		c-1.141,0-2.272-0.666-2.272-2.729C114.45,59.555,115.582,58.823,116.722,58.823z M116.722,59.479
		c-0.722,0-1.473,0.551-1.473,2.072c0,1.502,0.751,2.082,1.473,2.082c0.723,0,1.474-0.551,1.474-2.082
		C118.196,60.077,117.445,59.479,116.722,59.479z"/>
	<path fill="#FFFFFF" d="M121.053,62.017c-0.437-0.247-0.808-0.704-0.808-1.54c0-1.188,1.283-1.673,2.062-1.673
		c0.19,0,0.409,0.028,0.637,0.085c0.39-0.352,0.932-0.561,1.435-0.561c0.181,0,0.38,0.038,0.571,0.095l-0.133,0.666
		c-0.114-0.038-0.266-0.057-0.438-0.057c-0.266,0-0.542,0.057-0.77,0.152c0.418,0.267,0.751,0.685,0.751,1.293
		c0,1.512-1.274,1.816-2.054,1.816c-0.171,0-0.371-0.01-0.57-0.048c-0.304,0.219-0.561,0.495-0.561,0.761
		c0.067,0.066,0.922,0.066,1.141,0.076c1.245,0.066,2.7,0.294,2.7,1.559c0,1.15-0.836,2.139-2.671,2.139
		c-1.198,0-2.281-0.77-2.281-1.683c0.009-0.836,0.342-1.141,0.798-1.474c-0.266-0.114-0.485-0.294-0.485-0.618
		C120.378,62.672,120.673,62.321,121.053,62.017z M124.229,64.64c0-0.694-1.055-0.808-1.92-0.855c-0.181,0-0.428-0.009-0.684-0.009
		c-0.447,0.275-0.78,0.513-0.78,1.321c0,0.551,0.78,0.989,1.502,0.989C123.629,66.085,124.229,65.41,124.229,64.64z M122.308,61.684
		c0.476,0,1.265-0.209,1.265-1.208c0-0.779-0.789-1.064-1.265-1.064c-0.475,0-1.274,0.285-1.274,1.064
		C121.034,61.561,121.833,61.684,122.308,61.684z"/>
	<path fill="#FFFFFF" d="M126.325,58.937l1.417,3.669c0.656-1.606,1.455-3.517,1.635-3.669h0.903
		c-0.266,0.257-0.409,0.514-2.481,5.599c-0.238,0.589-0.485,1.198-0.97,1.664c-0.513,0.495-1.017,0.561-1.35,0.58l-0.2-0.694
		c0.58-0.038,0.808-0.209,1.007-0.409c0.229-0.219,0.399-0.476,0.761-1.35l0.257-0.637l-1.825-4.753H126.325z"/>
	<path fill="#FFFFFF" d="M133.469,64.165v-7.32h0.837v0.295c0.503-0.314,1.007-0.428,1.606-0.438c1.198,0,1.949,0.798,2.025,2.091
		c-0.01,1.493-0.837,2.072-1.654,2.244c0.836,0.675,1.587,2.405,2.5,3.108v0.019h-1.017c-0.827-0.656-1.692-2.757-2.69-3.061
		c-0.267,0-0.495,0-0.77,0v3.061H133.469z M137.119,58.794c0-0.808-0.513-1.34-1.34-1.34c-0.551,0-1.007,0.152-1.473,0.466v2.472
		h1.407C136.321,60.381,137.11,60.087,137.119,58.794z"/>
	<path fill="#FFFFFF" d="M141.583,58.823c1.949,0,2.11,1.949,2.11,2.319v0.371h-3.565c-0.047,1.236,0.485,2.082,1.493,2.082
		c0.275,0,0.894,0.028,1.616-0.922l0.485,0.466c-0.95,1.179-1.711,1.141-2.101,1.141c-1.521,0-2.282-1.236-2.282-2.671
		C139.34,60.087,140.214,58.823,141.583,58.823z M140.233,60.81h2.652c-0.085-0.533-0.409-1.303-1.302-1.303
		C140.88,59.507,140.443,60.077,140.233,60.81z"/>
	<path fill="#FFFFFF" d="M146.875,61.095c0.846,0.256,1.739,0.513,1.739,1.635c0,1.055-0.922,1.55-1.844,1.55
		c-0.77,0-1.597-0.352-2.043-1.065l0.551-0.447c0.285,0.523,0.903,0.836,1.511,0.846c0.523,0,1.036-0.285,1.036-0.884
		c0-0.542-0.618-0.741-1.179-0.913c-0.798-0.238-1.645-0.523-1.645-1.502c0-1.274,1.16-1.492,1.664-1.492
		c0.685,0,1.274,0.237,1.645,0.608l-0.513,0.494c-0.247-0.266-0.666-0.438-1.131-0.438c-0.275,0-0.875,0.124-0.875,0.827
		C145.791,60.762,146.323,60.923,146.875,61.095z"/>
	<path fill="#FFFFFF" d="M151.834,58.823c1.949,0,2.11,1.949,2.11,2.319v0.371h-3.565c-0.047,1.236,0.485,2.082,1.493,2.082
		c0.275,0,0.894,0.028,1.616-0.922l0.484,0.466c-0.95,1.179-1.711,1.141-2.101,1.141c-1.521,0-2.282-1.236-2.282-2.671
		C149.59,60.087,150.465,58.823,151.834,58.823z M150.484,60.81h2.652c-0.085-0.533-0.409-1.303-1.302-1.303
		C151.13,59.507,150.693,60.077,150.484,60.81z"/>
	<path fill="#FFFFFF" d="M155.252,59.649c0.342-0.19,1.455-0.827,2.51-0.827c1.093,0,1.264,1.007,1.264,1.502v2.813
		c0,0.038-0.009,0.418,0.514,0.666l-0.514,0.476c-0.456-0.181-0.646-0.485-0.732-0.818c-0.456,0.485-1.083,0.818-1.787,0.818
		c-0.209,0-1.474-0.105-1.474-1.426c0-0.675,0.276-1.473,1.882-1.711c0.694-0.095,1.093-0.162,1.321-0.219v-0.599
		c0-0.2-0.047-0.761-0.589-0.761c-0.808,0-2.082,0.742-2.082,0.732C155.566,60.287,155.243,59.668,155.252,59.649z M158.237,62.729
		v-1.122c-0.285,0.057-0.618,0.104-1.236,0.2c-1.036,0.162-1.188,0.608-1.188,1.045c0,0.656,0.523,0.751,0.666,0.761
		C157.144,63.661,157.857,63.205,158.237,62.729z"/>
	<path fill="#FFFFFF" d="M161.457,58.937v0.713c0.333-0.57,0.789-0.827,1.321-0.827c0.817,0,1.264,0.522,1.264,0.522l-0.551,0.533
		c0,0-0.228-0.295-0.675-0.295c-0.608,0-1.084,0.732-1.359,1.312v3.27h-0.799v-5.229H161.457z"/>
	<path fill="#FFFFFF" d="M168.317,59.659l-0.504,0.475c0,0-0.323-0.599-1.122-0.599c-0.656,0-1.426,0.684-1.426,2.11
		c0,1.045,0.542,1.93,1.378,1.93c0.371,0,0.713-0.066,1.273-0.599l0.495,0.476c-0.751,0.77-1.283,0.827-1.768,0.827
		c-1.312,0-2.177-1.15-2.177-2.633c0-1.968,1.227-2.823,2.244-2.823C167.785,58.823,168.317,59.659,168.317,59.659z"/>
	<path fill="#FFFFFF" d="M169.579,64.165V56.37h0.799v3.574c0.58-0.561,1.426-1.122,2.281-1.122c0.865,0,1.208,0.618,1.208,1.625
		v3.717h-0.799v-3.717c0-0.514-0.114-0.827-0.409-0.827c-0.989,0-1.844,0.789-2.281,1.245v3.299H169.579z"/>
	<path fill="#FFFFFF" d="M177.786,56.845h0.837v6.597h2.319c0.618,0,0.998-0.047,0.998-0.047v0.77h-4.154V56.845z"/>
	<path fill="#FFFFFF" d="M182.992,59.649c0.342-0.19,1.455-0.827,2.51-0.827c1.093,0,1.264,1.007,1.264,1.502v2.813
		c0,0.038-0.009,0.418,0.513,0.666l-0.513,0.476c-0.456-0.181-0.646-0.485-0.732-0.818c-0.456,0.485-1.083,0.818-1.787,0.818
		c-0.209,0-1.474-0.105-1.474-1.426c0-0.675,0.276-1.473,1.882-1.711c0.694-0.095,1.093-0.162,1.321-0.219v-0.599
		c0-0.2-0.047-0.761-0.589-0.761c-0.808,0-2.082,0.742-2.082,0.732C183.306,60.287,182.983,59.668,182.992,59.649z M185.977,62.729
		v-1.122c-0.285,0.057-0.618,0.104-1.236,0.2c-1.036,0.162-1.188,0.608-1.188,1.045c0,0.656,0.523,0.751,0.666,0.761
		C184.884,63.661,185.597,63.205,185.977,62.729z"/>
	<path fill="#FFFFFF" d="M193.018,61.465c0,1.778-0.836,2.814-2.196,2.814c-0.476,0-1.103-0.2-1.635-0.627v0.513h-0.789V56.37h0.789
		v3.241c0.418-0.456,0.913-0.789,1.768-0.789C192.371,58.823,193.018,60.087,193.018,61.465z M189.187,60.591v2.187
		c0.466,0.466,1.141,0.751,1.635,0.751c0.846,0,1.397-0.78,1.397-2.063c0-0.96-0.428-1.854-1.265-1.863
		C190.033,59.593,189.491,60.115,189.187,60.591z"/>
</g>
<g>
</g>
<g>
</g>
<g>
</g>
<g>
</g>
<g>
</g>
<g>
</g>
</svg>
