<svg xmlns="http://www.w3.org/2000/svg" viewBox="0 0 483 483"><defs><style>.a{fill:#4ec9f5;stroke:#fff;stroke-miterlimit:10;}.b{fill:#fff;}</style></defs><title>fetlab_documentseal</title><circle class="a" cx="241.5" cy="241.5" r="241"/><path class="b" d="M150.87,233.94h-21V119.52h68.49v15.89H150.87v31.2h40.41v16.18H150.87v51.15Z"/><path class="b" d="M279.21,217.76v16.18H208.9V119.52h68.35v16H229.88v31.05h40.26v16.18H229.88v35h49.33Z"/><path class="b" d="M287.29,135.7V119.52h85.18V135.7H340v98.24H319.14V135.7H287.29Z"/><path class="b" d="M137.94,350.36V248.91H141V350.36a10.81,10.81,0,0,0,2.41,6.6,8.14,8.14,0,0,0,6.91,3.18,22.68,22.68,0,0,0,3.18-.23q1.63-.23,3-0.47t3.26-.7l1.4,3q-2,.47-3.57.7t-3.49.47a33.09,33.09,0,0,1-4,.23q-5.91,0-9.09-3.8A13.49,13.49,0,0,1,137.94,350.36Z"/><path class="b" d="M261.16,358.46v3.11a5.48,5.48,0,0,1-4.12-1.94,6.48,6.48,0,0,1-1.48-4.27V347.9a36.26,36.26,0,0,1-15.46,11.57,50.6,50.6,0,0,1-18.72,3.65,27.17,27.17,0,0,1-10.25-1.94,25.87,25.87,0,0,1-8.31-5.28,24.69,24.69,0,0,1-5.51-7.85,23.24,23.24,0,0,1-2-9.63,18,18,0,0,1,3.26-11,24.36,24.36,0,0,1,8.16-7.07,38.24,38.24,0,0,1,10.72-3.81,56.64,56.64,0,0,1,11.11-1.16,75.6,75.6,0,0,1,16.93,1.63,77.25,77.25,0,0,1,10.1,2.87v-9.17a33,33,0,0,0-1.86-11.34,25.47,25.47,0,0,0-5.36-8.85,23.93,23.93,0,0,0-8.31-5.75,27.89,27.89,0,0,0-10.87-2,35.18,35.18,0,0,0-12.58,2.56,62.53,62.53,0,0,0-13.52,7.38l-1.87-2.49a83.23,83.23,0,0,1,13.44-7.46,35.79,35.79,0,0,1,14.53-3.11A31.79,31.79,0,0,1,242,282.11a26.18,26.18,0,0,1,9.24,6.6,27.65,27.65,0,0,1,5.59,9.86,38.79,38.79,0,0,1,1.87,12.2v44.59a8.69,8.69,0,0,0,.78,2.25A1.77,1.77,0,0,0,261.16,358.46Zm-7.92-12.74a11.49,11.49,0,0,0,2.33-6.37v-16a64.37,64.37,0,0,0-13.44-3.73,85.68,85.68,0,0,0-13.59-1.09,54.65,54.65,0,0,0-10.25,1,34.79,34.79,0,0,0-9.71,3.34,21.63,21.63,0,0,0-7.3,6.14,15.14,15.14,0,0,0-2.87,9.4,20,20,0,0,0,1.94,8.93,21.41,21.41,0,0,0,5.13,6.76,23.52,23.52,0,0,0,7.3,4.35,24.17,24.17,0,0,0,8.62,1.55,49.92,49.92,0,0,0,9-.86,46.49,46.49,0,0,0,8.93-2.56,35,35,0,0,0,7.92-4.43A23.56,23.56,0,0,0,253.24,345.72Z"/><path class="b" d="M368.44,321.85a47.92,47.92,0,0,1-3.26,15.77A42.89,42.89,0,0,1,357,350.9a40,40,0,0,1-12.2,9.17,34.2,34.2,0,0,1-15.22,3.42,32,32,0,0,1-9.4-1.4,38.44,38.44,0,0,1-8.7-3.88,43.53,43.53,0,0,1-7.61-5.83,34.61,34.61,0,0,1-5.83-7.22v16.78H295V248.52h3.11V300.1a59.83,59.83,0,0,1,14.29-14.37A31.63,31.63,0,0,1,331,280.06a33.17,33.17,0,0,1,15.85,3.73,37,37,0,0,1,11.73,9.71,45,45,0,0,1,7.3,13.44A45.63,45.63,0,0,1,368.44,321.85Zm-3.11,0a42.83,42.83,0,0,0-2.49-14.45,38.83,38.83,0,0,0-7.07-12.35,35.93,35.93,0,0,0-10.87-8.62,31.14,31.14,0,0,0-24.7-1.32,34.74,34.74,0,0,0-9.16,5.2,43.64,43.64,0,0,0-7.38,7.46,52.88,52.88,0,0,0-5.59,8.85v29.05a16.15,16.15,0,0,0,3.19,9.48,32.48,32.48,0,0,0,7.92,7.85,43.81,43.81,0,0,0,10.25,5.36,29.74,29.74,0,0,0,10.18,2A31.35,31.35,0,0,0,344,357a37.07,37.07,0,0,0,11.34-8.78,40.86,40.86,0,0,0,7.38-12.35A39.13,39.13,0,0,0,365.33,321.85Z"/></svg>