<?xml version="1.0" encoding="utf-8"?>
<!-- Generator: Adobe Illustrator 17.1.0, SVG Export Plug-In . SVG Version: 6.00 Build 0)  -->
<!DOCTYPE svg PUBLIC "-//W3C//DTD SVG 1.1//EN" "http://www.w3.org/Graphics/SVG/1.1/DTD/svg11.dtd">
<svg version="1.1" id="Layer_1" xmlns="http://www.w3.org/2000/svg" xmlns:xlink="http://www.w3.org/1999/xlink" x="0px" y="0px"
	 viewBox="0 0 227.1 67.7" enable-background="new 0 0 227.1 67.7" xml:space="preserve">
<path fill-rule="evenodd" clip-rule="evenodd" fill="#FFFFFF" d="M20.1,6.7v26.7c12.8,0,22.1-0.3,22.1-15.1c0-9-5.1-15.3-14.3-15.3
	c-1.2,0-5.7-0.3-6.6,0.1C19.9,3.7,20.1,5.6,20.1,6.7L20.1,6.7z M35.5,34.5l21.7,24.8c3.3,3.8,4.8,5.2,10,6v2.4
	c-3.1-0.1-6.1-0.3-9.2-0.4c-2.6,0.1-5.1,0.3-7.7,0.4l-4.8-5.9l-17-21.1c-3.4-3.9-3-4.5-8.4-4.5v12.1c0,3.3,0,10.8,0.9,13.6
	c1.2,3.6,5.4,3.5,8.7,3.5v2.4c-4.7-0.1-9.5-0.3-14.4-0.4C10.2,67.4,5.1,67.6,0,67.7v-2.4c3.3,0,7.6,0,8.7-3.5
	c0.9-2.8,0.9-10.3,0.9-13.6V19.4c0-3.3,0-10.8-0.9-13.6C7.6,2.2,3.3,2.4,0,2.4V0c5.8,0.1,11.8,0.3,17.6,0.4c4.3-0.1,8.7-0.3,13-0.4
	C42.2,0,54,2.7,54,16.9C54,27.9,45.6,33.5,35.5,34.5L35.5,34.5z"/>
<path fill="#FFFFFF" d="M107.4,48.3c0,3.3,0,10.8-1,13.6c-1.3,3.5-5.5,3.5-8.8,3.5v2.4c5.1-0.1,10.3-0.3,15.4-0.4
	c4.9,0.1,9.9,0.3,14.7,0.4v-2.4c-3.3,0-7.5,0-8.8-3.5c-1-2.8-1-10.3-1-13.6V19.4c0-3.3,0-10.8,1-13.6c1.3-3.5,5.5-3.5,8.8-3.5V0
	c-5.1,0.1-10.2,0.3-15.4,0.4c-4.9-0.1-9.8-0.3-14.7-0.4v2.4c3.3,0,7.5,0,8.8,3.5c1,2.8,1,10.3,1,13.6V48.3L107.4,48.3z"/>
<path fill="#FFFFFF" d="M226.1,0h-62.8v15.9h2.4c0.4-12.2,5.3-12.7,15.4-12.7c4.1,0,8.6-0.3,8.6,2.8v48.5c0,7.6-1.4,10.4-11.3,10.8
	v2.4c5.5-0.1,10.8-0.3,16.3-0.4c5.6,0.1,11.3,0.3,17,0.4v-2.4c-9.9-0.4-11.3-3.3-11.3-10.8V6c0-3.3,6.1-2.8,9.9-2.8
	c9.6,0,13.5,2.7,14.1,12.7h2.8L226.1,0L226.1,0z"/>
<path fill="#FFFFFF" d="M71.2,34c0-2.2,1.8-4,4-4s4,1.8,4,4c0,2.2-1.8,4-4,4S71.2,36.1,71.2,34L71.2,34z"/>
<path fill="#FFFFFF" d="M146.6,33.6c0-2.2,1.8-4,4-4s4,1.8,4,4c0,2.2-1.8,4-4,4S146.6,35.8,146.6,33.6L146.6,33.6z"/>
</svg>
