<?xml version="1.0" standalone="no"?>
<!DOCTYPE svg PUBLIC "-//W3C//DTD SVG 20010904//EN"
 "http://www.w3.org/TR/2001/REC-SVG-20010904/DTD/svg10.dtd">
<svg version="1.0" xmlns="http://www.w3.org/2000/svg"
 width="463.000000pt" height="463.000000pt" viewBox="0 0 463.000000 463.000000"
 preserveAspectRatio="xMidYMid meet">
<metadata>
Created by potrace 1.11, written by Peter Selinger 2001-2013
</metadata>
<g transform="translate(0.000000,463.000000) scale(0.100000,-0.100000)"
fill="#000000" stroke="none">
<path d="M1248 4610 c-63 -22 -124 -55 -150 -81 -10 -10 -26 -23 -36 -31 -47
-33 -102 -130 -128 -223 -20 -72 -20 -3819 0 -3910 37 -170 183 -316 356 -355
28 -6 408 -9 1032 -9 932 0 990 1 1040 18 92 32 141 62 203 125 65 66 106 140
124 224 18 84 15 3839 -3 3907 -39 149 -145 269 -286 327 l-55 23 -1020 2
c-989 2 -1022 2 -1077 -17z m1387 -461 c26 -26 26 -57 0 -77 -23 -18 -45 -19
-325 -19 -263 0 -304 2 -321 16 -29 24 -32 57 -5 78 21 17 50 18 329 18 263 0
309 -2 322 -16z m659 -464 c59 -39 56 43 56 -1372 -1 -1036 -3 -1303 -14
-1321 -7 -13 -26 -32 -42 -43 -28 -18 -57 -19 -982 -19 -1060 0 -993 -4 -1027
66 -22 47 -23 2600 -1 2643 20 39 55 59 107 63 24 2 456 2 960 2 859 -1 918
-3 943 -19z m-851 -2966 c94 -48 151 -144 151 -254 2 -255 -301 -381 -485
-202 -111 108 -113 292 -4 402 92 91 223 112 338 54z"/>
</g>
</svg>
